<svg viewBox="0 0 125.6839 68.329033" xmlns="http://www.w3.org/2000/svg">
  <path d="m 49.892857,77.017855 c 1.170257,0.237419 2.18303,1.432089 2.139542,2.323628 -0.06913,1.417231 -1.950556,2.779052 -1.950556,2.779052 m 39.234966,78.594081 c 0.444801,0.282542 1.00258,-0.08872 0.25485,-0.05711 -0.579325,0.02449 1.06007,0.0039 1.303757,-0.360471 0.580006,-0.867356 1.859155,-0.931523 2.399593,-1.573831 0.628847,-0.747381 1.69838,-1.242283 2.723538,-1.616726 0.858934,-0.313729 2.051411,-0.382747 2.656146,-1.16542 0.648198,-0.838925 1.709425,-1.029854 2.689244,-1.240005 1.114571,-0.239053 1.878964,-1.172667 2.956559,-1.456752 0.661288,-0.174335 1.760936,-1.061847 2.048725,-0.885924 0.375466,0.22952 1.349642,-0.502008 2.016393,-0.594407 1.189214,-0.164802 2.209005,-1.083082 3.420899,-1.139206 1.138617,-0.05273 2.230151,-0.454167 3.352681,-0.669741 0.244496,-0.04695 0.270605,0.01167 0.999678,-0.189362 0.956103,-0.263632 2.006913,-0.150997 2.913983,-0.535416 1.182749,-0.501251 2.427145,-0.793989 3.701733,-0.984188 0.797984,-0.119078 1.45529,-0.569116 2.441227,-0.375796 0.836316,0.163983 1.588368,-0.170294 2.392079,-0.304988 2.081358,-0.348813 4.127114,-0.806251 6.170603,-1.390958 1.271407,-0.36379 2.562803,-0.470194 3.90603,-0.769418 1.071505,-0.238694 2.206536,-0.808976 3.249787,-0.464291 1.100012,0.363438 2.059067,-0.245281 3.127017,-0.336296 1.005415,-0.08569 1.84225,-0.701249 2.604789,-1.262213 0.794018,-0.584122 1.945597,-0.400059 2.931186,-0.460509 1.424697,-0.08738 2.860697,-0.3265 4.285097,-0.207665 0.96923,0.08086 1.93496,0.152468 2.80454,0.638777 0.78129,0.436934 1.68019,0.522289 2.40721,0.831205 1.97218,0.837995 4.18258,0.108122 6.23285,0.463749 1.01779,0.17654 1.91543,-0.700446 2.71954,-0.661673 0.87621,0.04225 1.46967,-0.800187 2.27293,0.598829 0.44493,0.774924 0.0674,1.823736 0.11359,2.662672 0.0474,0.86018 -0.32683,1.521437 -1.2953,1.532231 -1.63017,0.01817 -3.29364,0.51057 -4.88835,0.122679 -1.08363,-0.263579 -2.10977,0.01378 -3.0839,0.292818 -1.05057,0.300932 -2.25648,0.542479 -3.4077,0.467721 -0.54544,-0.03542 -1.95798,0.642001 -1.47194,0.694249 1.24468,0.133798 2.64184,-0.605082 3.74372,-0.02608 0.86223,0.453079 1.76199,0.210907 2.67332,0.53119 1.05776,0.371748 1.87774,0.4252 2.78393,0.420631 1.10126,-0.0056 2.07229,0.767863 3.1392,0.676123 1.00889,-0.08675 2.03584,-0.1167 3.02978,0.109308 1.37915,0.313598 2.9296,0.195176 3.83903,-0.771834 0.73594,-0.782532 1.55058,-1.376549 2.42894,-2.150992 0.83813,-0.738964 1.45717,-1.637602 2.26085,-2.487168 0.81751,-0.864183 1.13917,-1.782834 2.16196,-2.608091 0.90746,-0.732203 1.65929,-1.629306 2.6271,-2.348871 0.89161,-0.662917 1.80272,-1.168295 2.58465,-2.061077 0.91278,-1.04218 2.1579,-1.721229 2.88787,-2.979687 0.54526,-0.94003 0.93162,-1.840027 1.65572,-2.766607 0.55408,-0.709026 1.12143,-1.354992 1.57387,-2.170796 0.4377,-0.789236 1.5147,-1.121093 2.08022,-1.759778 0.54445,-0.614892 1.11312,-0.848212 1.93919,-1.223741 0.95049,-0.432093 1.27768,-1.914265 2.28307,-1.957057 1.1533,-0.04909 1.72234,0.303155 2.83178,1.324043 0.81486,0.749815 1.32363,1.698838 1.99086,2.577732 0.66795,0.879854 1.45425,1.73392 1.73356,2.808692 0.26234,1.009462 0.91944,1.943383 1.58957,2.793386 0.60858,0.771935 0.89131,1.575315 1.4112,2.355416 0.67149,1.007592 1.15834,2.143802 1.85983,3.183973 0.51905,0.769655 0.94098,1.779947 1.42175,2.473318 0.49588,0.715161 1.03645,1.791333 1.2623,2.76581 0.24186,1.043534 0.86035,1.892963 1.09925,2.966669 0.35673,1.603283 -0.0719,3.202522 -0.40057,4.856347 -0.21178,1.065519 -0.8481,1.795788 -0.89528,2.895134 -0.0579,1.349685 -0.305,2.668097 -1.06721,3.773249 -0.57366,0.831767 -0.47275,1.832047 -0.86518,2.740618 -0.67999,1.574314 -0.55172,3.461924 -1.54025,4.876561 -0.58085,0.831228 -0.7909,1.811316 -1.03467,2.806077 -0.23404,0.955066 0.55046,1.775403 0.5411,2.669355 -0.0128,1.225879 0.0116,2.468685 -0.20811,3.687577 -0.23209,1.287441 -2.04666,1.235882 -2.13415,2.455621 -0.0838,1.168395 -0.0695,2.399211 -0.49236,3.477821 -0.34379,0.87688 -1.08716,1.8509 -1.21539,2.81061 -0.15097,1.12993 -0.92872,2.21294 -0.80549,3.32193 0.15508,1.39569 -1.63097,2.01284 -2.56096,1.54713 -1.04908,-0.52535 -2.11506,-0.65094 -3.26634,-0.64487 -1.07038,0.006 -3.0912,0.27141 -2.95535,1.44008 0.12128,1.04326 -1.00753,1.2755 -1.77082,1.81927 -0.8295,0.59094 -2.08677,0.38046 -2.84639,-0.0857 -0.88892,-0.54552 -2.33335,-0.0442 -3.03354,-0.84971 -0.62497,-0.71897 -2.39196,-0.50685 -2.75543,-0.67643 -0.89948,-0.41965 -1.92089,-0.35236 -2.70545,-0.88569 -0.85697,-0.58254 -2.0734,-1.5343 -2.70352,-2.00616 -0.79694,-0.59678 -1.42815,-1.49363 -2.4552,-1.81835 -0.99659,-0.31509 -2.20661,-0.6252 -2.61024,-1.56238 -0.44469,-1.0325 -0.76389,-1.72212 -1.20299,-2.76382 -0.33905,-0.80436 -1.00082,-1.4848 -1.20243,-2.314296 -0.2579,-1.061103 -0.79626,-2.019699 -1.36647,-2.95642 -0.40226,-0.660811 -1.26358,-1.605223 -1.45429,-1.928751 -0.27731,-0.470443 -0.24785,-1.07809 -0.57442,-1.441602 -0.49056,-0.546053 -0.72108,-1.070008 -1.20055,-1.736544 -0.67148,-0.933452 0.59869,-1.615148 0.51973,-2.441256 -0.0984,-1.029849 -1.46377,-0.984033 -2.26123,-0.886214 -1.02739,0.126022 -2.00578,-0.358295 -3.01595,-0.341719 -1.03942,0.01706 -3.43264,0.143792 -2.98442,-0.689351 0.11319,-0.210383 -1.33683,-0.482239 -1.92046,-0.459585 -1.00735,0.0391 -1.98225,-0.131673 -2.98083,-0.214766 -1.14429,-0.09522 -2.35796,-0.03362 -3.48606,-0.366246 -0.91231,-0.269004 -1.89976,-0.493376 -2.913533,-0.4599 -1.290956,0.04263 -2.548534,0.106402 -3.842691,-0.288837 -0.593471,-0.181248 -2.222311,0.259048 -1.198696,0.863397 1.092171,0.644824 2.299302,0.605194 3.613786,0.893801 1.584994,0.347999 3.308534,-0.339716 4.806684,0.250286 0.80511,0.317067 1.4568,0.346706 2.30813,0.858302 0.3324,0.199746 0.7966,1.393453 -0.22306,1.590067 -1.8089,0.348798 -3.71478,-0.31472 -5.479026,0.133633 -1.058887,0.269098 -2.139434,0.619551 -2.80633,1.469982 -0.642364,0.819148 -1.808356,0.944763 -2.874151,0.938808 -1.872897,-0.01046 -3.770769,-0.325368 -5.618645,-0.02763 -2.132683,0.343624 -4.283997,0.02714 -6.430797,0.02427 -2.087249,-0.0028 -4.28537,0.723372 -6.260612,0.05205 -1.208729,-0.410808 -2.477261,-0.767611 -3.850563,-0.806298 -1.123747,-0.03166 -2.114367,-0.587514 -3.271295,-0.639661 -1.021004,-0.04602 -2.089724,0.120336 -2.968421,-0.399995 -0.832345,-0.492882 -1.77428,-0.612665 -2.802381,-0.611524 -1.095938,0.0012 -2.160092,-0.172279 -3.143404,-0.589327 -1.00281,-0.425317 -2.12319,-0.527923 -3.137429,-0.74702 -0.880182,-0.190138 -1.648427,-0.267625 -2.564475,-0.292344 -1.312002,-0.0354 -2.700416,-0.06092 -3.725979,-0.911008 -0.673224,-0.558037 -1.671351,-0.740823 -2.521434,-1.157679 -0.915954,-0.449157 -1.679506,-0.886056 -2.657338,-1.252285 -1.181399,-0.442472 -1.368259,-2.921883 -2.42879,-2.400248 -0.431606,0.212291 -0.808818,-0.335586 -0.935443,-0.668173 -0.175428,-0.460771 -0.995623,-1.102056 -1.469984,-1.870887 -0.227205,-0.368248 -0.265626,-0.925944 -0.534537,-1.336347 z m 139.46104,64.027891 c 2.2206,-0.01808 4.46008,-0.06594 6.65498,0.302929 0.91673,0.154066 1.81268,0.40491 2.7253,0.582059 3.26114,0.63302 6.52729,1.330916 9.84607,1.541246 0.79676,0.05049 1.60646,0.101808 2.39475,-0.03678 0.41249,-0.07252 0.80594,-0.252559 1.23044,-0.251302 m 126.76573,76.856829 c 2.81421,-1.091776 5.89615,-1.34122 8.88427,-1.040792 2.66294,0.267733 5.24867,1.006093 7.78853,1.830581 1.04204,0.338265 2.183,0.511297 3.08311,1.150843 1.09459,0.777725 2.14881,1.610693 3.20492,2.439458 0.75124,0.589526 1.48367,1.202054 2.17892,1.85892 0.71737,0.67777 1.35963,1.481704 2.26597,1.91781 0.65988,0.317519 1.40376,0.395302 2.12757,0.395805 m 126.2312,88.215783 c 1.14777,0.02905 2.31873,-0.09996 3.44327,0.213797 0.70808,0.197562 1.26262,0.70804 1.93235,0.993591 0.55683,0.237409 1.13133,0.45381 1.61703,0.827248 0.40884,0.314341 0.8194,0.634674 1.29681,0.842232 0.52568,0.22854 1.05608,0.445707 1.55749,0.728307 0.65585,0.369647 1.25768,0.862966 1.97564,1.096462 0.36431,0.118479 0.75899,-0.01518 1.11994,0.166173 1.64228,0.825109 3.27944,1.742864 5.09864,2.109032 0.95066,0.191347 1.91765,0.01319 2.87307,-0.04541 0.57068,-0.03501 1.15433,-0.09879 1.71253,0.02027 0.3529,0.07527 0.64031,0.324049 0.89158,0.567395 0.25532,0.247266 0.5855,0.471777 0.69313,0.813218 0.0547,0.173627 0.0662,0.375443 0.21486,0.500067 0.16996,0.142451 0.3346,0.271276 0.29609,0.52206 m 66.229188,80.598601 c 0.49561,0.07331 1.006588,-0.03156 1.441259,-0.253306 0.400166,-0.204142 0.800654,-0.408169 1.231437,-0.548503 2.1911,-0.713783 4.435124,-1.334957 6.744868,-1.501343 2.400839,-0.172948 4.809668,-0.102047 7.214296,-0.101719 3.228584,4.4e-4 6.459233,0.183274 9.657054,0.680925 1.093902,0.170236 2.166294,0.444589 3.231727,0.744529 1.995635,0.56181 4.043649,0.89775 6.070071,1.3253 2.89457,0.610721 5.77924,1.264388 8.67328,1.880577 1.18076,0.251405 2.36109,0.577638 3.57725,0.57987 m 69.436422,73.382323 c 0.412688,0.02213 0.841116,0.05144 1.227411,-0.137613 0.412723,-0.201986 0.832333,-0.379901 1.283853,-0.492106 4.305012,-1.069809 8.76662,-1.243457 13.18188,-1.238021 1.750418,0.0022 3.500435,-0.03868 5.250864,-0.04152 1.056023,-0.0017 2.120564,-0.06117 3.168226,0.0804 1.465057,0.197979 2.884411,0.64139 4.354236,0.815631 1.125397,0.13341 2.204468,0.488267 3.272138,0.857794 0.97806,0.33851 1.96425,0.685318 3.00739,0.783966 0.57211,0.0541 1.09374,0.316724 1.66737,0.37977 0.37133,0.04081 0.56603,0.381699 0.89011,0.535595 0.97432,0.462675 2.01966,0.758262 2.9339,1.368238 0.89568,0.597597 1.99466,0.832214 3.06028,0.829636 M 47.436013200000005, 79.852676 a 1.5119048,1.5119048 0 1,0 3.0238096,0 a 1.5119048,1.5119048 0 1,0 -3.0238096,0 " />
</svg>