<svg
   viewBox="0 0 6.35 6.35"
   xmlns:svg="http://www.w3.org/2000/svg">
    <path
       d="m 43.609208,48.714347 c 0.06329,-0.0048 0.478513,0.294138 0.780756,0.095 0.177212,-0.11676 0.575556,-0.130719 0.597493,-0.158013 0.02826,-0.03517 0.231413,-0.396364 0.126402,-0.918089 -0.155984,-0.774974 0.210242,-0.714426 0.189927,-1.016426 -0.01634,-0.242766 -0.400295,-0.492417 -0.417827,-0.651364 -0.01596,-0.144608 -0.232105,-0.234911 -0.233659,-0.253493 -0.0074,-0.08774 -0.45378,0.364267 -0.499154,0.466201 -0.0825,0.185332 -0.427356,0.364692 -0.566215,0.474806 -0.160206,0.127043 -0.346397,0.221215 -0.405231,0.208145 -0.160594,-0.03569 -0.593545,-0.04667 -0.73713,-0.09445 -0.08592,-0.02859 0.263702,0.01291 0.39089,-0.01282 0.08609,-0.01742 0.201281,-0.02435 0.243112,-0.09401 0.03442,-0.05733 0.01419,-0.202198 -0.03814,-0.192288 0,0 -0.22809,0.06557 -0.338453,0.0641 -0.07222,-9.98e-4 -0.2992,-0.05969 -0.450475,-0.08119 -0.08138,-0.01156 -0.04798,-0.0076 -0.245496,-0.02564 -0.09371,-0.0085 -0.380621,0.09977 -0.581564,0.115373 -0.98205,0.07626 -1.265622,0.185878 -1.265622,0.185878 -0.534244,0.171508 -1.129587,0.439027 -1.155981,0.542681 0,0 -0.0064,0.06468 0.01431,0.0876 0.12796,0.141551 0.330346,0.223238 0.481699,0.301831 0.129749,0.06737 0.321192,0.0639 0.466919,0.09556 0.118195,0.02568 0.228152,0.07969 0.347986,0.09828 0.25069,0.03889 0.508855,0.04076 0.762709,0.02564 0.223295,-0.0133 0.453516,0.01321 0.676904,-0.01282 0.09188,-0.01071 0.16781,-0.07288 0.257415,-0.09401 0.120844,-0.02849 0.373506,-0.0367 0.373506,-0.0367 0.01586,-0.01214 -0.06282,-0.07392 -0.132205,-0.105593 -0.06939,-0.03168 -0.453162,-0.02536 -0.423569,-0.03969 0.04732,-0.02292 0.414008,-0.0029 0.474397,0.0085 0.204952,0.03857 0.410792,0.03128 0.592136,0.07519 0.0601,0.01456 0.178292,0.331223 0.349365,0.58398 0.139704,0.206412 0.339732,0.359718 0.364798,0.357813"/>
  </svg>
