<svg viewBox="0 0 120 120" xmlns="http://www.w3.org/2000/svg">
  <path d="m 104.31887,77.889061 c -3.36134,-1.898414 -7.226166,-2.720482 -10.496056,-4.811322 -4.98756,-3.147196 -10.04189,-6.206796 -15.29474,-8.891964 -2.88384,-1.458754 -5.84168,-2.797237 -8.96803,-3.647357 -6.2408,-1.881543 -12.60769,-3.438464 -19.09038,-4.195147 -1.53725,-0.134814 -3.15385,-0.282707 -4.64296,0.201951 -0.86101,0.478202 -1.49732,1.468344 -1.53427,2.445793 0.0889,4.089282 2.11586,7.757972 3.61925,11.457664 1.40079,2.877091 4.07208,4.78721 6.05721,7.215621 1.72735,2.294469 2.99792,4.94014 5.11523,6.926806 3.71624,3.868556 8.14965,6.930152 12.5384,9.973383 3.26554,2.375927 6.21529,5.256785 9.85919,7.063691 1.98554,0.72625 4.26032,0.59853 6.0507,1.85101 1.77461,0.98198 3.42491,2.10624 5.09517,3.25866 0.85058,-0.16679 0.87552,-1.1652 0.67413,-1.83138 -0.0914,-0.61428 -0.34711,-1.37563 -0.51441,-1.85779 2.86763,3.28066 6.47424,5.85792 9.060456,9.36684 1.46149,1.61873 2.84972,3.40557 4.7514,4.52699 2.07315,0.89033 4.25847,-0.18725 6.237,-0.81892 2.47053,-0.8539 5.14148,-2.17004 6.21515,-4.71526 0.90412,-2.3914 0.4432,-4.99234 0.32782,-7.47279 -0.18481,-1.82217 -0.98609,-3.59342 -2.40209,-4.785391 -1.76791,-1.784218 -3.68242,-3.413559 -5.54241,-5.099396 1.40982,0.934367 2.94816,1.70583 4.5651,2.204583 1.21714,0.371407 2.60931,0.0094 3.41693,-0.996506 0.81412,-0.858811 1.54583,-2.01821 1.41963,-3.243206 -0.32698,-0.981297 -1.57276,-0.913342 -2.32766,-1.381683 -2.04948,-0.855759 -4.26713,-1.708527 -5.61526,-3.586254 -2.43573,-2.838854 -4.73028,-5.825941 -7.57331,-8.280647 -0.31827,-0.30979 -0.64034,-0.618315 -1.00119,-0.877971 z m 54.970984,60.981683 c 1.17025,0.237419 2.18303,1.432089 2.13954,2.323628 -0.0691,1.417231 -1.95056,2.779052 -1.95056,2.779052 m 117.0991,99.682779 c -0.14747,-0.168522 -0.49875,-0.474903 0.34557,-0.416876 0.69271,0.04762 2.22447,0.244919 3.34799,0.312921 2.24705,0.136004 4.99964,0.310883 6.72688,0.129349 0.57633,-0.06058 1.15252,-0.148105 1.72144,-0.268129 0.56892,-0.120022 1.13059,-0.272534 1.67788,-0.463068 1.58002,-0.550063 3.02926,-1.420521 4.48425,-2.273211 1.45498,-0.852695 2.91571,-1.687618 4.51871,-2.166607 2.34518,-0.700762 5.25753,-0.5943 7.81434,-1.219611 2.55681,-0.625309 4.75808,-1.982385 6.76132,-0.575986 0.69293,0.486481 0.57319,1.271805 0.64937,2.179306 0.0762,0.9075 0.75922,2.263146 0.88999,3.099631 0.28421,1.81786 -0.11379,3.177232 0.0623,5.012552 0.1761,1.83533 0.51536,3.82062 0.47676,5.66015 -0.0209,0.99447 -0.082,1.99408 -0.20266,2.98517 -0.12067,0.99108 -0.30086,1.97365 -0.55984,2.93403 -0.42216,1.56554 -0.90592,3.13968 -1.51435,4.65608 -0.60843,1.51641 -1.34153,2.97508 -2.26237,4.30969 -0.59466,0.86179 -1.34548,1.59177 -2.14061,2.28317 -0.79512,0.69141 -1.99352,0.8843 -2.76528,1.5919 -1.28118,1.17466 -2.39433,2.63672 -3.78798,3.70621 -1.39365,1.06948 -2.70881,2.20636 -3.67607,3.65055 -0.30423,0.45421 -0.42725,0.99732 -0.54636,1.54292 -0.11911,0.54562 -0.23431,1.09376 -0.52287,1.55809 -0.37705,0.60667 -0.91231,1.08565 -1.46247,1.55429 -0.55015,0.46864 -1.11521,0.92695 -1.55177,1.49229 -0.22143,0.28667 -0.41787,0.66455 -0.59954,1.01534 -0.18141,0.35096 -0.3478,0.67499 -0.50868,0.85424 -0.16107,0.17915 -0.73045,0.57554 -1.37419,1.05521 -0.64375,0.47968 -1.3619,1.04262 -1.82064,1.55477 -0.26292,0.29351 -0.43931,0.65619 -0.62252,1.01214 -0.18321,0.35596 -0.37325,0.70519 -0.66337,0.97184 -0.44743,0.41125 -0.98655,0.69195 -1.54623,0.94433 -0.55968,0.25239 -1.13991,0.47645 -1.66956,0.77444 -0.48527,0.27302 -0.92894,0.74017 -1.38889,1.11808 -0.45996,0.37791 -0.93622,0.66658 -1.48666,0.58266 -0.73374,-0.11186 -1.13853,-0.7921 -1.5304,-1.51754 -0.39187,-0.72544 -0.77084,-1.49607 -1.45292,-1.78872 -0.59828,-0.25677 -1.26466,-0.33087 -1.93639,-0.29102 -0.67172,0.0398 -1.34883,0.19366 -1.96867,0.39288 -0.28171,0.0905 -0.50139,0.34868 -0.72447,0.57967 -0.22307,0.231 -0.4496,0.43481 -0.74494,0.41672 -1.29493,-0.0793 -2.30808,-0.89478 -3.22362,-1.92294 -0.91551,-1.02818 -1.7334,-2.26907 -2.63782,-3.19922 -0.58344,-0.60003 -1.15923,-1.21431 -1.70089,-1.85549 -0.54166,-0.64118 -1.04918,-1.30925 -1.49612,-2.01684 -0.83512,-1.32219 -1.67604,-2.68073 -2.38362,-4.09235 -0.70757,-1.41161 -1.28181,-2.87629 -1.58357,-4.41074 -0.23381,-1.18898 -0.16569,-2.39893 -0.0294,-3.61443 0.13629,-1.21549 0.34075,-2.43652 0.37959,-3.64765 0.0244,-0.76145 0.0428,-1.52314 0.0549,-2.28493 0.0122,-0.76178 0.0182,-1.52367 0.0179,-2.2855 -2.2e-4,-0.7212 -0.22076,-1.50455 -0.33992,-2.25674 -0.11918,-0.75219 -0.137,-1.47324 0.26821,-2.06984 0.16998,-0.25027 0.44383,-0.42368 0.75055,-0.52796 0.30671,-0.10429 0.64626,-0.13943 0.94765,-0.11313 0.8786,0.0767 1.57816,0.70406 2.27732,1.33586 0.69914,0.6318 1.39783,1.26803 2.27471,1.36243 0.78808,0.0848 1.56258,-0.11138 2.317,-0.41805 0.75441,-0.30667 1.48872,-0.7238 2.19642,-1.08077 0.75528,-0.38096 1.51988,-0.78842 2.23203,-1.26228 0.71214,-0.47386 1.37184,-1.01412 1.91727,-1.6607 0.44866,-0.53185 0.84252,-1.13063 1.15162,-1.76824 0.30913,-0.6376 0.53353,-1.31401 0.64328,-2.00111 0.12919,-0.80885 0.0813,-1.63258 -0.0532,-2.45156 -0.13447,-0.81897 -0.35547,-1.6332 -0.57239,-2.42306 -0.20607,-0.75032 -0.40524,-1.51938 -0.68508,-2.25191 -0.2798,-0.73254 -0.6403,-1.42854 -1.16901,-2.032729 z M 51.712327200000004, 63.549236 a 1.5119048,1.5119048 0 1,0 3.0238096,0 a 1.5119048,1.5119048 0 1,0 -3.0238096,0 " />
</svg>