<?xml version="1.0" encoding="UTF-8" standalone="no"?>
<!-- Created with Inkscape (http://www.inkscape.org/) -->

<svg
   width="24mm"
   height="24mm"
   viewBox="0 0 24 24"
   version="1.1"
   id="svg1"
   inkscape:version="1.4 (86a8ad7, 2024-10-11)"
   sodipodi:docname="coral.svg"
   xmlns:inkscape="http://www.inkscape.org/namespaces/inkscape"
   xmlns:sodipodi="http://sodipodi.sourceforge.net/DTD/sodipodi-0.dtd"
   xmlns="http://www.w3.org/2000/svg"
   xmlns:svg="http://www.w3.org/2000/svg">
  <sodipodi:namedview
     id="namedview1"
     pagecolor="#ffffff"
     bordercolor="#000000"
     borderopacity="0.25"
     inkscape:showpageshadow="2"
     inkscape:pageopacity="0.0"
     inkscape:pagecheckerboard="true"
     inkscape:deskcolor="#d1d1d1"
     inkscape:document-units="px"
     showborder="false"
     inkscape:antialias-rendering="true"
     showgrid="false"
     showguides="false"
     inkscape:zoom="8.1"
     inkscape:cx="26"
     inkscape:cy="45"
     inkscape:window-width="1920"
     inkscape:window-height="1009"
     inkscape:window-x="-8"
     inkscape:window-y="-8"
     inkscape:window-maximized="1"
     inkscape:current-layer="layer1" />
  <defs
     id="defs1" />
  <g
     inkscape:label="Calque 1"
     inkscape:groupmode="layer"
     id="layer1">
    <path
       style="fill:none;stroke:#000000;stroke-width:0.26"
       d="M 9.9,24 10,16 5.7,12 3.1,14 2.9,13 4.7,11 3.6,8.1 4.9,7.8 5.5,11 7.5,12 9.7,5.5 8.8,4.4 9.4,3.4 11,5.2 8.8,12 15,7.3 16,8.4 9.9,13 12,12 13,11 h 1 l -1,1 5,1 v 1 l -4,-1 -4,1 1,1 v 9"
       id="path25"
       sodipodi:nodetypes="cccccccccccccccccccccccccccc" />
    <ellipse
       style="fill:none;stroke:#000000;stroke-width:0.26"
       id="path26"
       cx="16"
       cy="5.6"
       rx="3.9"
       ry="0.94" />
    <path
       style="fill:none;stroke:#000000;stroke-width:0.26"
       d="M 20,5.1 22,4.3 V 7.2 L 20,6.1 V 5.9"
       id="path28" />
    <ellipse
       style="fill:none;stroke:#000000;stroke-width:0.318599"
       id="path26-5"
       cx="6"
       cy="18"
       rx="3.9"
       ry="1.4" />
    <path
       style="fill:none;stroke:#000000;stroke-width:0.26"
       d="m 2.3,19 -2.03,1 v -3 l 2.03,1 v 0"
       id="path28-5"
       inkscape:transform-center-x="-4.9"
       inkscape:transform-center-y="0.49" />
    <ellipse
       style="fill:none;stroke:#000000;stroke-width:0.26"
       id="path29"
       cx="8.8"
       cy="18"
       rx="0.25"
       ry="0.26" />
    <ellipse
       style="fill:none;stroke:#000000;stroke-width:0.26"
       id="path30"
       cx="13"
       cy="5.5"
       rx="0.22"
       ry="0.26" />
  </g>
</svg>
