<?xml version="1.0" encoding="UTF-8" standalone="no"?>
<!-- Created with Inkscape (http://www.inkscape.org/) -->

<svg
   width="24mm"
   height="24mm"
   viewBox="0 0 24 24"
   version="1.1"
   id="svg1"
   inkscape:version="1.4 (86a8ad7, 2024-10-11)"
   sodipodi:docname="ecumeur.svg"
   xmlns:inkscape="http://www.inkscape.org/namespaces/inkscape"
   xmlns:sodipodi="http://sodipodi.sourceforge.net/DTD/sodipodi-0.dtd"
   xmlns="http://www.w3.org/2000/svg"
   xmlns:svg="http://www.w3.org/2000/svg">
  <g
     inkscape:label="Calque 1"
     inkscape:groupmode="layer"
     id="layer1">
    <path
       style="fill:none;stroke:#000000;stroke-width:0.26"
       d="M 3.9,24 H 19 C 17,20 18,16 14,12 V 8.3 l 3,0.1 0,-3.3 C 14,3.3 16,1.2 11,0.19 6.6,1.2 8.3,3.5 5.8,5.3 l 0.1,3 H 8.6 V 12 C 4.3,16 6,20 3.9,24 Z"
       id="path3"
       sodipodi:nodetypes="cccccccccccc" />
    <rect
       style="fill:none;stroke:#000000;stroke-width:0.26"
       id="rect3"
       width="1.5"
       height="3.1"
       x="6.4"
       y="8.3" />
    <path
       style="fill:none;stroke:#000000;stroke-width:0.26"
       d="m 7,11 c -0.1,0 0,4 0,5 -0.5,6 2.3,4 5,8"
       id="path4"
       sodipodi:nodetypes="csc" />
    <path
       style="fill:none;stroke:#000000;stroke-width:0.26"
       d="m 7.5,11 c -0.1,0 0.1,4 0.1,5 -0.5,6 2.3,4 5.4,8"
       id="path4-8"
       sodipodi:nodetypes="csc"
       inkscape:transform-center-x="-0.57"
       inkscape:transform-center-y="2" />
    <path
       style="fill:none;stroke:#000000;stroke-width:0.26"
       d="m 8.6,12 c 5.4,0 5.4,0 5.4,0 v 0"
       id="path5" />
    <path
       style="fill:none;stroke:#000000;stroke-width:0.289124"
       d="m 8.6,8.3 c 4.4,0 4.4,0 5.4,0"
       id="path6"
       sodipodi:nodetypes="cc" />
    <rect
       style="fill:none;stroke:#000000;stroke-width:0.26"
       id="rect7"
       width="1"
       height="2.6"
       x="6.7"
       y="8.5" />
    <ellipse
       style="fill:none;stroke:#000000;stroke-width:0.26"
       id="path11"
       cx="9.1"
       cy="5.5"
       rx="0.24"
       ry="0.065" />
    <ellipse
       style="fill:none;stroke:#000000;stroke-width:0.26"
       id="path12"
       cx="11"
       cy="3.4"
       rx="0.29"
       ry="0.31" />
    <ellipse
       style="fill:none;stroke:#000000;stroke-width:0.26"
       id="path13"
       cx="13"
       cy="5.7"
       rx="0.016"
       ry="0.36" />
    <ellipse
       style="fill:none;stroke:#000000;stroke-width:0.26"
       id="path14"
       cx="11"
       cy="6.8"
       rx="0.6"
       ry="0.24" />
    <circle
       style="fill:none;stroke:#000000;stroke-width:0.26"
       id="path15"
       cx="9.4"
       cy="3.6"
       r="0.44" />
    <ellipse
       style="fill:none;stroke:#000000;stroke-width:0.26"
       id="path16"
       cx="13"
       cy="3.9"
       rx="0.21"
       ry="0.13" />
    <ellipse
       style="fill:none;stroke:#000000;stroke-width:0.26"
       id="path17"
       cx="11"
       cy="4.7"
       rx="0.18"
       ry="0.19" />
    <ellipse
       style="fill:none;stroke:#000000;stroke-width:0.26"
       id="path18"
       cx="14"
       cy="7.5"
       rx="0.14"
       ry="0.22" />
    <ellipse
       style="fill:none;stroke:#000000;stroke-width:0.26"
       id="path19"
       cx="11"
       cy="5.5"
       rx="0.21"
       ry="0.19" />
    <ellipse
       style="fill:none;stroke:#000000;stroke-width:0.26"
       id="path20"
       cx="9.6"
       cy="6.2"
       rx="0.11"
       ry="0.081" />
    <ellipse
       style="fill:none;stroke:#000000;stroke-width:0.26"
       id="path21"
       cx="9.1"
       cy="7"
       rx="0.24"
       ry="0.14" />
    <ellipse
       style="fill:none;stroke:#000000;stroke-width:0.26"
       id="path22"
       cx="12"
       cy="7.3"
       rx="0.14"
       ry="0.18" />
    <ellipse
       style="fill:none;stroke:#000000;stroke-width:0.26"
       id="path23"
       cx="14"
       cy="6"
       rx="0.31"
       ry="0.18" />
    <ellipse
       style="fill:none;stroke:#000000;stroke-width:0.26"
       id="path24"
       cx="12"
       cy="2.5"
       rx="0.29"
       ry="0.096" />
    <ellipse
       style="fill:none;stroke:#000000;stroke-width:0.26"
       id="path25"
       cx="7.8"
       cy="4.9"
       rx="0.031"
       ry="0.065" />
  </g>
</svg>
