<?xml version="1.0" encoding="UTF-8" standalone="no"?>
<!-- Created with Inkscape (http://www.inkscape.org/) -->

<svg
   width="24mm"
   height="24mm"
   viewBox="0 0 24 24"
   version="1.1"
   id="svg1"
   inkscape:version="1.4 (86a8ad7, 2024-10-11)"
   sodipodi:docname="ecumeur.svg"
   xmlns:inkscape="http://www.inkscape.org/namespaces/inkscape"
   xmlns:sodipodi="http://sodipodi.sourceforge.net/DTD/sodipodi-0.dtd"
   xmlns="http://www.w3.org/2000/svg"
   xmlns:svg="http://www.w3.org/2000/svg">
  <g
     inkscape:label="Calque 1"
     inkscape:groupmode="layer"
     id="layer1">
    <path
       style="fill:none;stroke:#000000;stroke-width:0.26"
       d="M 3.9,24 H 19 C 17,20 18,16 14,12 V 8.3 l 3,0.1 0,-3.3 C 14,3.3 16,1.2 11,0.19 6.6,1.2 8.3,3.5 5.8,5.3 l 0.1,3 H 8.6 V 12 C 4.3,16 6,20 3.9,24 Z"
       id="path3"
       sodipodi:nodetypes="cccccccccccc" />
    <rect
       style="fill:none;stroke:#000000;stroke-width:0.26"
       id="rect3"
       width="1.5"
       height="3.1"
       x="6.4"
       y="8.3" />
    <path
       style="fill:none;stroke:#000000;stroke-width:0.26"
       d="m 7,11 c -0.1,0 0,4 0,5 -0.5,6 2.3,4 5,8"
       id="path4"
       sodipodi:nodetypes="csc" />
    <path
       style="fill:none;stroke:#000000;stroke-width:0.26"
       d="m 8.6,12 c 5.4,0 5.4,0 5.4,0 v 0"
       id="path5" />
    <path
       style="fill:none;stroke:#000000;stroke-width:0.289124"
       d="m 8.6,8.3 c 4.4,0 4.4,0 5.4,0"
       id="path6"
       sodipodi:nodetypes="cc" />
    <rect
       style="fill:none;stroke:#000000;stroke-width:0.26"
       id="rect7"
       width="5.5"
       height="4.4"
       x="8.6"
       y="3.9" />
  </g>
</svg>
