<?xml version="1.0" encoding="UTF-8" standalone="no"?>
<!-- Created with Inkscape (http://www.inkscape.org/) -->

<svg
   width="125.6839mm"
   height="68.329033mm"
   viewBox="0 0 125.6839 68.329033"
   version="1.1"
   id="svg4501"
   inkscape:version="1.4 (86a8ad7, 2024-10-11)"
   sodipodi:docname="Guppy_orange.svg"
   xmlns:inkscape="http://www.inkscape.org/namespaces/inkscape"
   xmlns:sodipodi="http://sodipodi.sourceforge.net/DTD/sodipodi-0.dtd"
   xmlns="http://www.w3.org/2000/svg"
   xmlns:svg="http://www.w3.org/2000/svg"
   xmlns:rdf="http://www.w3.org/1999/02/22-rdf-syntax-ns#"
   xmlns:cc="http://creativecommons.org/ns#"
   xmlns:dc="http://purl.org/dc/elements/1.1/">
 <g
     inkscape:label="Ebene 1"
     inkscape:groupmode="layer"
     id="layer1"
     transform="translate(-38.967696,-44.784485)">
    <path
       style="fill:none;fill-opacity:1;fill-rule:evenodd;stroke:#000000;stroke-width:0.26458332px;stroke-linecap:butt;stroke-linejoin:miter;stroke-opacity:1"
       d="M 86.989328,63.062029 C 67.522305,64.748561 61.90116,67.172521 61.90116,67.172521 51.310936,70.965199 39.50954,76.881094 38.986352,79.173264 c 0,0 -0.127367,1.43011 0.283484,1.937129 2.536515,3.130242 6.548378,4.936671 9.548646,6.674685 2.571974,1.489908 6.366963,1.413082 9.255669,2.113262 2.342939,0.567894 4.52259,1.762287 6.898066,2.173362 4.969366,0.859948 10.08692,0.901359 15.119046,0.566965 4.42632,-0.294137 8.989958,0.292107 13.418155,-0.283483 1.821312,-0.23674 3.326455,-1.61169 5.102678,-2.078868 2.395474,-0.630053 7.403924,-0.811306 7.403924,-0.811306 0.31442,-0.268389 -1.24533,-1.634799 -2.62066,-2.335125 -1.37533,-0.700325 -8.982929,-0.560756 -8.396346,-0.877673 0.93812,-0.506844 8.206816,-0.06328 9.403886,0.188004 4.06274,0.852827 8.1431,0.691569 11.73782,1.662736 2.16399,0.584634 5.79279,1.133166 6.89807,1.039435 2.06977,-0.175523 3.18035,-2.215308 4.25223,-3.779761 1.34919,-1.969189 2.6828,-4.328724 2.50409,-6.709077 -0.14567,-1.940291 -1.58283,-3.613225 -2.83482,-5.10268 -1.22496,-1.457297 -2.59907,-3.110461 -4.44122,-3.590774 -3.17366,-0.827483 -12.46179,-0.833152 -15.30804,-1.889879 -1.70285,-0.632217 5.22733,0.28537 7.74852,-0.283483 1.70659,-0.385055 3.98998,-0.538383 4.81919,-2.078871 0.68235,-1.267653 0.28129,-4.471366 -0.75595,-4.25223 0,0 -4.52139,1.450024 -6.70908,1.41741 -1.43175,-0.02134 -5.931,-1.320079 -8.92969,-1.795388 -1.61297,-0.255665 -0.95089,-0.168579 -4.866418,-0.566962 -1.857489,-0.188989 -7.544993,2.206244 -11.528274,2.551337 z"
       id="path5061"
       inkscape:connector-curvature="0"
       sodipodi:nodetypes="sccsssssssssssssssssssssssss" />
    <circle
       style="fill:#000000;fill-opacity:1;stroke:none;stroke-width:0.26499999;stroke-miterlimit:4;stroke-dasharray:none;stroke-dashoffset:0;stroke-opacity:1"
       id="path5057"
       cx="48.947918"
       cy="79.852676"
       r="1.5119048" />
    <path
       style="fill:none;fill-rule:evenodd;stroke:#000000;stroke-width:0.26458332px;stroke-linecap:butt;stroke-linejoin:miter;stroke-opacity:1"
       d="m 49.892857,77.017855 c 1.170257,0.237419 2.18303,1.432089 2.139542,2.323628 -0.06913,1.417231 -1.950556,2.779052 -1.950556,2.779052"
       id="path5059"
       inkscape:connector-curvature="0"
       sodipodi:nodetypes="csc" />
    <path
       style="fill:none;fill-opacity:1;fill-rule:evenodd;stroke:#000000;stroke-width:0.26458332px;stroke-linecap:butt;stroke-linejoin:miter;stroke-opacity:1"
       d="m 122.36979,69.83631 c -0.21279,-0.06977 -0.6712,-0.154203 0.0847,-0.53482 0.62017,-0.312258 2.03843,-0.923596 3.03959,-1.437998 2.00232,-1.028805 4.45934,-2.281948 5.85259,-3.318849 0.46489,-0.345989 0.91591,-0.71509 1.34411,-1.108438 0.4282,-0.393347 0.83359,-0.810941 1.20723,-1.253915 1.07869,-1.27885 1.88151,-2.766628 2.69833,-4.242051 0.81681,-1.475422 1.64763,-2.938489 2.78233,-4.167918 1.66006,-1.798652 4.21963,-3.192117 6.10021,-5.033774 1.88058,-1.841656 3.08218,-4.131504 5.52256,-3.94316 0.84414,0.06515 1.14158,0.801765 1.66986,1.543574 0.52828,0.741809 1.80711,1.559681 2.34614,2.212564 1.17143,1.418851 1.52222,2.791166 2.60956,4.280164 1.08734,1.488997 2.39151,3.023805 3.29631,4.625899 0.48914,0.866104 0.94627,1.757168 1.34784,2.671256 0.40156,0.914089 0.74758,1.851201 1.01451,2.8094 0.43513,1.561984 0.82166,3.162775 1.07151,4.777473 0.24985,1.614699 0.36301,3.243305 0.25141,4.860919 -0.0721,1.044559 -0.34575,2.055354 -0.67719,3.055564 -0.33143,1.00021 -1.26396,1.777223 -1.56704,2.779442 -0.50313,1.663769 -0.71517,3.489077 -1.36867,5.119717 -0.65351,1.63064 -1.20514,3.279224 -1.30079,5.01477 -0.0301,0.545869 0.14101,1.07578 0.31676,1.605868 0.17576,0.530089 0.35616,1.060354 0.3447,1.606931 -0.015,0.714126 -0.2312,1.399094 -0.4655,2.082764 -0.23429,0.68367 -0.48667,1.366041 -0.57394,2.074972 -0.0443,0.359513 -0.0206,0.784737 0.002,1.179141 0.0229,0.394404 0.045,0.757989 -0.002,0.994223 -0.0472,0.236235 -0.33487,0.867554 -0.64404,1.608436 -0.30918,0.740886 -0.6399,1.591326 -0.77337,2.265816 -0.0765,0.38655 -0.0433,0.78848 -0.0194,1.1881 0.0239,0.39963 0.0385,0.79695 -0.0751,1.17426 -0.17519,0.58192 -0.49582,1.09829 -0.84858,1.60078 -0.35276,0.5025 -0.73763,0.99111 -1.0413,1.51752 -0.27823,0.48231 -0.42168,1.1104 -0.62464,1.67002 -0.20297,0.55963 -0.46546,1.0508 -0.98176,1.25929 -0.68822,0.27791 -1.38329,-0.10084 -2.0903,-0.52506 -0.70701,-0.42422 -1.42596,-0.8939 -2.16193,-0.79785 -0.64559,0.0842 -1.25661,0.36025 -1.81413,0.73705 -0.55752,0.37679 -1.06155,0.85438 -1.49317,1.34182 -0.19616,0.22153 -0.25351,0.55561 -0.32763,0.86806 -0.0741,0.31246 -0.16504,0.60329 -0.42832,0.73833 -1.15437,0.59209 -2.44173,0.40721 -3.75357,-0.0104 -1.31183,-0.41764 -2.64815,-1.06803 -3.90045,-1.40699 -0.80785,-0.21866 -1.61639,-0.45348 -2.40928,-0.72884 -0.7929,-0.27536 -1.57014,-0.59126 -2.31542,-0.97205 -1.39259,-0.71154 -2.80871,-1.4514 -4.13719,-2.30491 -1.32847,-0.8535 -2.56931,-1.82065 -3.61132,-2.98675 -0.80741,-0.90357 -1.36578,-1.97914 -1.86834,-3.09423 -0.50255,-1.1151 -0.94929,-2.269717 -1.53345,-3.331371 -0.36726,-0.667466 -0.73989,-1.33204 -1.11786,-1.993554 -0.37798,-0.661514 -0.76131,-1.319969 -1.14999,-1.975196 -0.36794,-0.620274 -0.95709,-1.181676 -1.44315,-1.767967 -0.48607,-0.586291 -0.86907,-1.197471 -0.82471,-1.9173 0.0186,-0.301956 0.16575,-0.590782 0.37642,-0.836883 0.21066,-0.246101 0.48484,-0.449475 0.75751,-0.580527 0.7949,-0.382048 1.71659,-0.199081 2.64018,-0.01208 0.92358,0.186996 1.84904,0.37802 2.65149,0.01208 0.72118,-0.328876 1.28738,-0.892602 1.77997,-1.541092 0.49259,-0.64849 0.91157,-1.381746 1.33833,-2.049682 0.45545,-0.712838 0.90541,-1.453224 1.27639,-2.223984 0.37098,-0.77076 0.66298,-1.571894 0.80248,-2.406225 0.11475,-0.686286 0.14823,-1.402207 0.089,-2.108313 -0.0592,-0.706105 -0.21107,-1.402396 -0.46702,-2.049423 -0.30131,-0.761669 -0.76258,-1.445812 -1.29587,-2.081748 -0.53328,-0.635936 -1.13858,-1.223666 -1.72794,-1.792509 -0.55986,-0.540371 -1.12335,-1.100378 -1.7376,-1.58783 -0.61425,-0.487452 -1.27926,-0.902348 -2.04215,-1.152496 z"
       id="path5063"
       inkscape:connector-curvature="0"
       sodipodi:nodetypes="csssssssssssssssssssssssssssssssssssssssssssssssssssssssssssssssssssc" />
  </g>
</svg>
