<?xml version="1.0" encoding="UTF-8" standalone="no"?>
<!-- Created with Inkscape (http://www.inkscape.org/) -->

<svg
   width="120mm"
   height="120mm"
   viewBox="0 0 120 120"
   version="1.1"
   id="svg4501"
   inkscape:version="1.4 (86a8ad7, 2024-10-11)"
   sodipodi:docname="Guppy_orange.svg"
   xmlns:inkscape="http://www.inkscape.org/namespaces/inkscape"
   xmlns:sodipodi="http://sodipodi.sourceforge.net/DTD/sodipodi-0.dtd"
   xmlns="http://www.w3.org/2000/svg"
   xmlns:svg="http://www.w3.org/2000/svg"
   xmlns:rdf="http://www.w3.org/1999/02/22-rdf-syntax-ns#"
   xmlns:cc="http://creativecommons.org/ns#"
   xmlns:dc="http://purl.org/dc/elements/1.1/">
  <g
     inkscape:label="Ebene 1"
     inkscape:groupmode="layer"
     id="layer1"
     transform="translate(-38.967696,-44.784485)">
    <circle
       style="fill:#000000;fill-opacity:1;stroke:none;stroke-width:0.265;stroke-miterlimit:4;stroke-dasharray:none;stroke-dashoffset:0;stroke-opacity:1"
       id="path5057"
       cx="51.086075"
       cy="58.471115"
       r="1.5119048" />
    <path
       style="fill:none;fill-rule:evenodd;stroke:#000000;stroke-width:0.264583px;stroke-linecap:butt;stroke-linejoin:miter;stroke-opacity:1"
       d="m 52.565558,55.636292 c 1.17025,0.237419 2.18303,1.432089 2.13954,2.323628 -0.0691,1.417231 -1.95056,2.779052 -1.95056,2.779052"
       id="path5059"
       inkscape:connector-curvature="0"
       sodipodi:nodetypes="csc" />
    <path
       style="fill:#000000;stroke-width:0.264583"
       id="path3"
       d="m 42.158532,48.885994 c 0.806043,0.017 1.600547,-0.03863 2.357287,-0.327883 0.452462,-0.133382 0.672443,-0.554795 1.023881,-0.818858 0.196107,-0.14735 0.293538,-0.162718 0.525553,-0.248023 0.788466,-0.205184 1.609624,-0.211076 2.419119,-0.223203 0.663327,-0.0022 1.326642,0.0042 1.989965,0.0068 0.54246,-0.0076 1.101104,0.117106 1.548904,0.431083 2.698395,1.469123 -4.460804,-2.745501 -2.044126,-1.170794 1.602042,0.887529 3.296861,2.204732 5.2086,2.515912 0.834254,0.194379 1.645912,0.467171 2.479107,0.666549 0.719919,0.203291 1.436747,0.380398 2.134141,0.654828 0.632593,0.23222 1.312759,0.333368 1.933908,0.594976 0.668183,0.145257 1.232283,0.531308 1.837799,0.835864 0.791463,0.362441 1.537021,0.818144 2.317793,1.204613 0.661204,0.274467 1.288547,0.620634 1.932725,0.933453 0.902899,0.361461 1.801784,0.723724 2.715234,1.058588 1.059511,0.440286 2.166723,0.736255 3.255983,1.089081 0.896372,0.348796 1.815047,0.641821 2.686386,1.051972 0.644023,0.28213 1.31304,0.501426 1.917404,0.865159 -8.023825,-4.624609 0.430173,0.25288 0.646454,0.377258 0.505463,0.290681 1.032399,0.533648 1.532773,0.83436 -5.886928,-3.228915 -2.784948,-1.755143 -1.603441,-0.785383 0.438653,0.374221 0.941089,0.659478 1.424022,0.970561 2.210218,1.32907 7.361283,4.227255 0.78222,0.463864 -0.08176,-0.04677 0.160676,0.09839 0.239347,0.150188 0.1764,0.116134 0.348943,0.238033 0.524592,0.355298 0.785416,0.506975 1.515285,1.091391 2.281235,1.625668 0.627163,0.455426 1.235562,0.93432 1.870533,1.379389 0.669327,0.485115 1.30761,1.011142 1.961411,1.516959 0.71908,0.50658 1.422305,1.034654 2.127253,1.560456 1.849649,1.285068 3.849182,2.340768 5.814883,3.436727 -0.918197,-0.523814 -1.83243,-1.054641 -2.754593,-1.571444 -0.171757,-0.09626 0.332827,0.210629 0.503031,0.30961 1.259332,0.732368 2.528501,1.447788 3.785399,2.184332 0.962644,0.564114 -3.863107,-2.234808 -2.902625,-1.667023 0.728099,0.430412 8.177321,4.716984 0.777217,0.456351 2.140254,1.409755 8.808614,5.172824 1.616355,1.032705 1.28324,0.827157 2.572374,1.709868 3.986409,2.273105 0.26714,0.106411 0.55716,0.151167 0.82888,0.248238 1.42423,0.509034 4.14328,2.229038 -1.924602,-1.24147 0.441292,0.254876 0.619652,0.721746 0.780982,1.178782 0.25609,0.68993 0.66795,1.296527 1.06494,1.909834 0.27703,0.575717 0.68541,1.053446 1.08845,1.540999 0.4763,0.643853 0.97634,1.267754 1.48296,1.88776 0.42006,0.541486 0.92793,1.001702 1.35926,1.532811 0.586,0.657225 1.24326,1.245568 1.87036,1.862645 0.64168,0.59798 1.2636,1.214779 1.92147,1.795156 0.52677,0.487783 1.00244,1.027184 1.52624,1.518123 0.49353,0.374862 0.92721,0.808228 1.34389,1.264439 0.34169,0.443592 0.68876,0.881213 1.03956,1.318059 0.38829,0.487696 0.88194,0.872503 1.3462,1.283393 1.25072,0.933199 2.81944,1.672373 4.07423,2.388968 0.25279,0.144367 0.50199,0.248359 0.7774,0.340857 1.14728,0.729798 2.94546,1.66497 -2.59758,-1.477724 -0.14312,-0.08115 0.32805,0.19059 0.57672,0.507378 0.16884,0.427371 -0.25925,0.80201 -0.53176,1.08993 -0.32973,0.409681 -0.67493,0.806066 -1.00096,1.218523 -0.32123,0.418689 -0.72666,0.762227 -1.08033,1.152659 -0.33305,0.274826 -0.58552,0.612574 -0.84905,0.948574 -0.26822,0.312947 -0.57149,0.584491 -0.9641,0.721447 -0.51717,0.122336 -1.05512,0.112856 -1.58354,0.118306 -0.0966,0.08899 -0.75816,-0.338114 -0.699,-0.304665 5.59045,3.160787 3.61893,2.209398 2.50812,1.363419 -0.40928,-0.38976 -0.7969,-0.809847 -1.10611,-1.2847 -0.3077,1.340493 4.18818,2.560971 -3.28059,-1.53057 -0.076,-0.04162 0.14888,0.08885 0.22035,0.137795 0.24565,0.16822 0.29162,0.220089 0.52576,0.422029 0.64826,0.628558 1.15145,1.373727 1.59021,2.157336 0.29812,0.705837 0.68715,1.361033 1.09155,2.009487 0.42019,0.695671 0.80929,1.41192 1.17002,2.14028 0.9013,1.76259 2.60104,2.00212 4.39325,3.17092 1.01636,0.66282 -2.10232,-1.21221 -3.15349,-1.81832 1.30312,1.41733 3.14109,1.69091 4.68872,2.59174 0.52353,0.28872 1.10486,0.39271 1.69211,0.44911 0.58327,0.0417 1.16848,0.0304 1.75275,0.0292 0.79629,-0.0604 1.55464,-0.2705 2.32302,-0.46886 0.88545,-0.18033 1.76886,-0.37481 2.66374,-0.50472 0.6755,-0.071 1.34557,-0.0845 2.01436,-0.20393 0.79026,-0.13473 1.58686,-0.23264 2.37496,-0.37951 0.82083,-0.1496 1.6497,-0.28564 2.44951,-0.52746 0.61167,-0.1886 1.24189,-0.26932 1.85544,-0.4505 0.87714,-0.15589 1.71351,-0.45282 2.56579,-0.70149 0.64423,-0.26519 1.32751,-0.3983 1.999,-0.57306 0.55186,-0.14263 1.12042,-0.17974 1.68756,-0.19889 0.95564,-0.18419 1.93213,-0.2142 2.90207,-0.25075 0.89272,0.0179 1.77026,-0.0462 2.65264,-0.16888 0.60785,-0.0576 1.20612,-0.19179 1.7967,-0.34525 0.70878,-0.16625 1.41758,-0.33046 2.12173,-0.51515 0.71156,-0.19482 1.44622,-0.270672 2.18039,-0.312267 0.58481,0.02297 1.14965,-0.125513 1.72499,-0.204044 0.42466,0.0042 0.92214,-0.176636 1.3385,-0.02772 0.0899,0.03214 0.16408,0.09756 0.24612,0.146338 -6.93621,-3.554907 -3.38406,-2.293459 -2.65111,-1.354934 0.3013,0.385816 0.44709,0.832797 0.60059,1.289622 0.33482,0.976035 0.25883,1.718555 0.0237,2.696485 -0.29009,0.85279 -0.61629,1.6889 -0.8299,2.56578 -0.13949,0.93807 -0.3712,1.85794 -0.51283,2.79548 -0.16273,1.33265 -0.12447,2.67881 -0.20009,4.01734 -0.10437,1.03469 -0.32249,2.0526 -0.50985,3.07407 -0.16853,0.9263 -0.35483,1.8469 -0.4545,2.7838 -0.0438,0.83883 -0.1392,1.66713 -0.32249,2.48676 -0.17443,0.77083 -0.20997,1.56173 -0.31925,2.34153 -0.12534,0.69714 -0.19215,1.40173 -0.23646,2.10804 -0.0294,0.77236 -0.24881,1.52535 -0.4665,2.26266 -0.18696,0.66878 -0.45977,1.30357 -0.76638,1.92448 -0.26565,0.44238 -0.5945,0.8398 -0.84563,1.2905 -0.26991,0.52748 -0.67234,0.96721 -1.04373,1.42475 -0.46452,0.64209 -0.92915,1.27142 -1.50139,1.82238 -0.54336,0.53397 -1.1154,1.0503 -1.7583,1.46183 -0.48474,0.36533 -1.02647,0.63784 -1.49458,1.02443 -0.42171,0.37188 -0.88174,0.71962 -1.4253,0.88316 -0.69192,0.0774 -1.31972,0.28057 -1.92836,0.61581 -0.63861,0.44611 -1.20083,1.00152 -1.72559,1.57569 -0.48917,0.5688 -0.7545,1.27613 -1.07777,1.9431 -0.63653,0.95447 -1.09012,1.84188 -1.39553,2.95379 -0.35512,1.60903 -0.76305,3.20388 -1.22617,4.78533 -0.23742,1.06819 -0.68682,2.06159 -1.09913,3.0677 -0.26899,0.49273 -0.41445,1.17247 -0.89739,1.51756 -0.12092,0.0864 -0.26138,0.14151 -0.39207,0.21226 -0.93969,0.37459 -1.95748,0.53858 -2.95248,0.70913 -0.96742,0.17247 -1.81672,0.67497 -2.63239,1.19835 -0.70257,0.48481 -1.41773,0.94293 -2.02125,1.55054 -0.56543,0.49192 -1.05703,1.05919 -1.59787,1.57556 -0.46066,0.38267 -1.05455,0.49993 -1.61839,0.6623 -0.61237,0.12001 -1.15925,0.43197 -1.70255,0.72361 -0.40935,0.30155 -0.85824,0.52716 -1.26546,0.83365 -0.45774,0.34601 -0.93905,0.59656 -1.49831,0.72325 -0.37883,0.0292 -0.78336,0.14301 -1.15958,0.034 -0.0816,-0.0236 -0.30787,-0.14255 -0.23405,-0.10058 1.0485,0.59606 2.10623,1.17573 3.15934,1.7636 -0.52516,-0.33372 -0.79087,-0.91494 -1.16281,-1.39239 -1.29901,-1.47812 -3.15797,-2.46817 -5.05236,-2.97691 -0.71314,-0.16422 -1.44889,-0.17523 -2.17708,-0.18733 -0.63756,-0.006 -1.27519,-0.006 -1.91275,-8e-4 -0.40747,-0.0511 -0.84545,0.0715 -1.25013,0.002 -0.22112,-0.0381 -0.31739,-0.13254 -0.49408,-0.25455 1.05502,0.59489 2.09441,1.21838 3.16504,1.78468 0.0784,0.0414 -0.12338,-0.12854 -0.17293,-0.20205 -0.20874,-0.30961 -0.25859,-0.68975 -0.30537,-1.04993 -0.0435,-0.73713 -0.21391,-1.45999 -0.37572,-2.17832 -0.1266,-0.71306 -0.38616,-1.3456 -0.82375,-1.91743 -0.42865,-0.49242 -0.91192,-0.93762 -1.39211,-1.37975 -0.61848,-0.53739 -1.14651,-1.16583 -1.67814,-1.78655 -0.56414,-0.59375 -0.9908,-1.29117 -1.43787,-1.97196 -0.45172,-0.79795 -0.86245,-1.6181 -1.25679,-2.44575 -0.38714,-0.72606 -0.75736,-1.45715 -0.96169,-2.25694 -0.11264,-0.68041 -0.20539,-1.36434 -0.31841,-2.045 -0.21533,-0.82272 -0.41495,-1.64272 -0.5201,-2.48753 -0.0752,-0.67963 -0.0849,-1.36366 -0.0877,-2.04666 -0.0274,-0.58914 0.0471,-1.19562 -0.074,-1.77826 -0.11281,-0.54257 -0.29581,-0.91964 -0.50526,-1.43075 -0.41047,-1.02584 -1.0277,-2.04985 -0.95506,-3.18819 0.20051,-0.70846 0.74152,-1.27617 1.20439,-1.83327 0.44706,-0.53945 0.67699,-1.21241 0.93697,-1.85352 0.32049,-0.51292 0.75922,-0.92362 1.12569,-1.40068 0.41925,-0.66311 0.62026,-1.42398 0.77896,-2.18385 0.13594,-0.81464 0.14668,-1.64279 0.16224,-2.46649 -0.004,-0.73713 -0.18905,-1.44443 -0.48244,-2.11531 -0.37986,-0.78261 -0.75051,-1.56757 -1.20072,-2.31253 -0.41905,-0.70576 -0.8751,-1.37978 -1.39924,-2.01139 -0.60432,-0.66495 -1.15044,-1.37904 -1.729958,-2.0649 -0.629028,-0.71738 -1.347515,-1.34539 -1.989621,-2.04989 -0.391769,-0.51906 -0.918517,-0.89213 -1.416807,-1.29908 -0.658625,-0.53906 -1.231072,-1.17521 -1.780765,-1.82252 -0.540766,-0.6331 -1.009745,-1.32359 -1.389462,-2.06419 -0.319273,-0.66392 -0.856977,-1.15543 -1.403638,-1.62928 -1.33091,-1.05859 -2.934309,-1.77305 -4.370594,-2.63212 -0.989161,-0.59164 3.964747,2.34923 3.003492,1.71326 1.546582,-3.891759 -3.676743,-2.94258 -3.743881,-1.49798 -0.01106,0.23784 0.09733,0.55257 0.141975,0.78199 0.167339,0.64598 0.264364,1.30318 0.315535,1.96749 -0.0037,0.60492 0.09737,1.19781 0.187825,1.79333 -0.0057,0.29384 0.292899,1.04255 -0.105199,1.15844 -1.00743,-1.11609 -0.675396,-0.35648 2.897093,1.49472 0.10836,0.0562 -0.172517,-0.17324 -0.249706,-0.26778 -0.240837,-0.29495 -0.280006,-0.39814 -0.469493,-0.73264 -0.35986,-0.84874 -0.816665,-1.62073 -1.403379,-2.32952 -1.31064,-1.5604 -2.750748,-1.98623 -4.760381,-3.10226 -1.101034,-0.18642 -2.167109,-0.54474 -3.227906,-0.88897 -1.141568,-0.35636 -2.188604,-0.94779 -3.212343,-1.55566 5.408147,3.57185 2.775151,1.58728 1.625198,0.56692 -0.555874,-0.47216 -1.047959,-1.00993 -1.562494,-1.524827 -0.636993,-0.586465 -1.35263,-1.074258 -2.053357,-1.579078 -0.532077,-0.403159 -1.049862,-0.830911 -1.522759,-1.302737 -0.665864,-0.674447 -1.401824,-1.27353 -2.13396,-1.873422 -1.078251,-0.79946 -2.191938,-1.553332 -3.300754,-2.31108 -0.799084,-0.556302 -1.61784,-1.084585 -2.358139,-1.718955 C 64.591354,90.359583 63.91816,89.783112 63.275956,89.173279 62.702181,88.617294 62.166092,88.024667 61.569713,87.492741 60.866328,86.932131 60.161585,86.370664 59.542982,85.715815 59.085158,85.213451 58.720147,84.639763 58.316897,84.09534 57.855164,83.453199 57.42515,82.794048 56.922777,82.181728 56.431661,81.55384 55.969249,80.904172 55.492401,80.26551 54.788847,79.377555 53.83646,78.73389 52.96204,78.027331 c -0.751063,-0.62637 -1.486233,-1.269916 -2.245431,-1.886503 -0.691895,-0.532694 -1.273592,-1.180727 -1.854055,-1.827853 -0.824527,-0.888918 -1.578295,-1.837021 -2.14212,-2.911999 -0.470858,-1.1242 -0.724215,-2.315423 -0.856794,-3.522016 -0.220622,-1.446575 -0.525323,-2.875333 -0.702197,-4.330609 -0.04426,-1.351852 -0.413633,-2.633139 -0.868894,-3.89496 -0.270241,-0.882516 -0.692266,-1.703052 -1.047905,-2.551004 -0.271636,-0.719032 -0.440355,-1.468778 -0.632187,-2.211241 -0.169451,-0.815111 -0.411045,-1.612171 -0.582723,-2.426504 -0.218612,-0.79994 0.01257,-1.440628 0.482577,-2.080727 0.333232,-0.400019 0.745552,-0.691893 1.170838,-0.982526 0,0 -3.319017,-2.119681 -3.319017,-2.119681 v 0 c -0.461451,0.315556 -0.88765,0.657889 -1.236041,1.101141 -0.511264,0.712774 -0.839476,1.482094 -0.619448,2.374949 0.157561,0.819875 0.386929,1.619462 0.561351,2.435533 0.181018,0.760838 0.377398,1.517333 0.61073,2.263952 0.342732,0.860674 0.802454,1.670232 1.085419,2.555828 0.480561,1.235032 0.891786,2.484421 0.933029,3.824359 0.18127,1.445139 0.443751,2.875538 0.68111,4.31024 0.113796,1.251234 0.376597,2.468763 0.808575,3.652285 0.50959,1.109541 1.249833,2.083086 2.059548,2.993203 0.586037,0.651491 1.144182,1.333926 1.833151,1.882039 0.758058,0.63794 1.539302,1.246939 2.281001,1.904955 0.855562,0.695195 1.769952,1.330928 2.52679,2.135166 0.487394,0.630947 0.945255,1.283907 1.417133,1.926424 0.499725,0.610118 0.991641,1.216236 1.393371,1.898652 0.424697,0.538591 0.778455,1.125792 1.222629,1.64937 0.583476,0.704393 1.301465,1.276461 2.019022,1.838344 0.627461,0.486561 1.138962,1.096544 1.706975,1.64968 0.633909,0.624025 1.316924,1.192516 1.96103,1.806379 0.707206,0.697973 1.554908,1.215818 2.36546,1.78394 1.113067,0.751014 2.213224,1.519412 3.317333,2.281991 0.720431,0.57925 1.423389,1.179402 2.101479,1.807922 0.462741,0.502182 0.979893,0.936183 1.500122,1.377442 0.715208,0.480433 1.405509,0.994106 2.087795,1.519507 0.517385,0.508736 0.990611,1.055966 1.536406,1.535928 1.571411,1.418643 2.833966,2.518043 5.05813,3.376283 1.043966,0.57373 2.087457,1.1555 3.243704,1.47626 1.079826,0.33988 2.16602,0.65171 3.260617,0.93921 -5.418402,-3.21231 -3.106603,-2.08392 -1.952117,-0.85726 0.627266,0.73241 1.104722,1.32523 1.449011,2.25224 0.895178,1.94238 1.742134,1.86931 4.250053,3.32097 0.07076,0.041 0.163314,0.0376 0.244038,0.0247 0.08577,-0.0138 0.159769,-0.0683 0.239652,-0.1024 0.524248,-0.4929 0.370006,-0.8939 0.30435,-1.54469 -0.08304,-0.59038 -0.225361,-1.17172 -0.21042,-1.77188 -0.04436,-0.67879 -0.110488,-1.35569 -0.287629,-2.01507 -0.01244,-0.0529 -0.113567,-0.72278 -0.121272,-0.73304 -0.05661,-0.0754 -0.114059,0.24437 -0.198215,0.20183 -1.139796,-0.57612 -2.214568,-1.27276 -3.321852,-1.90914 2.108505,1.35841 7.217151,4.18459 0.644118,0.39359 -0.687441,-0.39648 1.445136,0.78462 0.761555,0.49932 0.564298,0.4165 1.092267,0.87963 1.47991,1.47059 0.350652,0.77427 0.823661,1.49088 1.357966,2.1509 0.527865,0.67609 1.122307,1.312 1.752431,1.89241 0.481576,0.41101 1.033343,0.75191 1.425043,1.25226 0.341508,0.34897 0.168503,0.16169 0.515967,0.56464 0.484232,0.51018 1.058166,0.93226 1.504354,1.48133 0.599983,0.66485 1.109485,1.40789 1.727684,2.05821 0.531443,0.61121 1.001816,1.25688 1.416561,1.95298 0.454917,0.73288 0.858853,1.48682 1.211079,2.27615 0.32924,0.60191 0.50159,1.26628 0.56001,1.94967 -0.003,0.80204 -0.01,1.60792 -0.12868,2.40285 -0.13034,0.70354 -0.31179,1.40746 -0.70061,2.01751 -0.392998,0.49917 -0.860127,0.93774 -1.177723,1.49449 -0.249446,0.60343 -0.445404,1.24642 -0.867716,1.75673 -0.510104,0.62256 -1.085247,1.25598 -1.319888,2.03818 -0.142814,1.25556 0.463098,2.2644 0.934868,3.39127 0.152157,0.34805 0.427464,0.93204 0.521002,1.314 0.138417,0.56523 0.02133,1.14854 0.05101,1.72064 0.0053,0.69823 0.0061,1.39813 0.08058,2.09325 0.0992,0.85135 0.249727,1.69104 0.51743,2.50758 0.11929,0.68216 0.192587,1.37139 0.289102,2.05678 0.177379,0.84009 0.530056,1.61176 0.963038,2.35196 0.398847,0.8295 0.787067,1.66138 1.210447,2.47876 0.44072,0.69925 0.87228,1.41368 1.43153,2.02597 0.52361,0.6203 1.02701,1.27125 1.63448,1.80985 0.45424,0.46033 0.95696,0.87293 1.40702,1.33736 0.17827,0.20113 0.41987,0.43023 0.55311,0.66403 0.18921,0.33201 0.26807,0.7434 0.37379,1.10418 0.17514,0.69297 0.30868,1.40705 0.36883,2.11858 0.19171,2.29474 1.22253,2.30315 3.9358,3.68105 0.60065,0.17917 1.2257,0.096 1.84562,0.10873 0.63306,2.3e-4 1.26621,-0.009 1.8992,0.005 0.71044,0.0229 1.42819,0.0582 2.11131,0.27339 1.34092,0.47194 2.92886,1.59979 -2.38515,-1.52264 -0.0825,-0.0485 0.17011,0.0887 0.24929,0.14244 0.21775,0.14787 0.26704,0.22012 0.44872,0.4105 0.42401,0.47163 0.70346,1.02767 1.11132,1.51211 2.67526,1.51034 2.91137,2.45804 5.17099,1.95885 0.57614,-0.18506 1.08833,-0.48118 1.57415,-0.84139 0.40455,-0.27821 0.84172,-0.50243 1.24006,-0.79046 0.52097,-0.28647 1.06363,-0.53041 1.64633,-0.66284 0.61809,-0.19124 1.26056,-0.3466 1.73354,-0.81908 0.51684,-0.53483 1.00869,-1.09432 1.56968,-1.58525 0.60871,-0.55859 1.29116,-1.02059 1.97005,-1.48939 0.79364,-0.49564 1.62188,-0.92941 2.56007,-1.06772 1.02068,-0.20589 2.0725,-0.37637 3.01768,-0.82848 0.15421,-0.0963 0.31979,-0.17646 0.46264,-0.28895 0.51187,-0.40311 0.69103,-1.09678 0.97232,-1.65385 0.4056,-1.02767 0.83051,-2.04978 1.05686,-3.13744 0.44089,-1.58589 0.85907,-3.17727 1.25719,-4.77393 0.30581,-1.1367 0.73965,-1.90269 1.39376,-2.86822 0.31685,-0.62817 0.56378,-1.30652 1.0342,-1.84062 0.49391,-0.54112 1.01024,-1.08814 1.64597,-1.46187 0.61208,-0.29585 1.25695,-0.40342 1.91122,-0.56695 0.55572,-0.235 1.04077,-0.59807 1.4992,-0.98751 0.46846,-0.36119 0.99105,-0.64405 1.45953,-1.00636 0.64589,-0.4469 1.23797,-0.96564 1.78424,-1.53011 0.57766,-0.56506 1.06567,-1.19796 1.54089,-1.85011 0.39189,-0.47183 0.81293,-0.92818 1.09317,-1.47872 0.25227,-0.45798 0.60526,-0.84909 0.85205,-1.31184 0.30693,-0.64603 0.58272,-1.30313 0.78221,-1.99162 0.21785,-0.76369 0.46298,-1.54436 0.51838,-2.33677 0.0317,-0.69561 0.0871,-1.39027 0.21934,-2.07507 0.12191,-0.77056 0.10821,-1.5608 0.29542,-2.32328 0.18325,-0.83538 0.31768,-1.67515 0.33289,-2.53267 0.0912,-0.92831 0.26767,-1.83948 0.43849,-2.75552 0.19866,-1.04004 0.38197,-2.08267 0.49824,-3.13618 0.0778,-1.32339 0.0357,-2.65448 0.21042,-3.97176 0.13864,-0.9273 0.37781,-1.83189 0.52099,-2.75789 0.18725,-0.88434 0.50981,-1.71898 0.8108,-2.56875 0.24355,-0.97417 0.41066,-1.90879 0.0678,-2.8885 -0.78679,-2.694611 -1.3776,-2.22997 -4.58784,-4.031108 -0.56763,-0.109371 -1.13736,-0.0473 -1.70619,0.03759 -0.5645,0.08993 -1.12608,0.182999 -1.69991,0.186127 -0.74475,0.06674 -1.48564,0.175953 -2.20799,0.374279 -0.70994,0.164812 -1.41383,0.350811 -2.126,0.506257 -0.59018,0.122928 -1.17844,0.253018 -1.77921,0.314092 -0.8593,0.122155 -1.72162,0.146743 -2.58889,0.166846 -0.98712,0.04351 -1.97313,0.09928 -2.95445,0.217247 -0.58304,0.03795 -1.1635,0.109265 -1.72664,0.272187 -0.67105,0.180322 -1.34992,0.33082 -1.99619,0.592703 -0.84374,0.26798 -1.68838,0.51936 -2.55882,0.68873 -0.62311,0.14614 -1.25766,0.24445 -1.86548,0.45192 -0.79295,0.20919 -1.59621,0.3722 -2.40471,0.50878 -0.79922,0.12868 -1.60365,0.22266 -2.40216,0.35654 -0.66349,0.10093 -1.33683,0.0945 -1.99855,0.21264 -0.89545,0.15718 -1.78691,0.34236 -2.6738,0.54113 -0.75179,0.18974 -1.50976,0.35803 -2.28926,0.37234 -0.57642,-0.002 -1.15528,-5.3e-4 -1.72801,-0.0741 -0.56631,-0.0939 -1.10658,-0.26345 -1.60189,-0.56171 -1.36087,-0.68042 -3.91957,-1.86038 2.07178,1.30445 -1.20044,-0.69537 -2.37096,-1.44514 -3.60131,-2.0861 -1.06907,-0.55694 2.0755,1.22667 3.11692,1.83375 0.0851,0.0496 -0.17016,-0.10049 -0.24775,-0.16121 -0.25352,-0.19835 -0.43541,-0.46202 -0.60925,-0.72862 -0.33843,-0.75401 -0.78288,-1.45852 -1.16912,-2.18865 -0.39525,-0.645365 -0.82655,-1.271396 -1.09385,-1.984802 -0.42247,-0.815988 -0.93192,-1.575827 -1.53857,-2.26772 -0.19676,-0.211661 -0.42499,-0.481637 -0.68154,-0.628174 -1.19019,-0.67982 -2.36073,-1.399077 -3.59131,-2.002721 -0.0808,-0.03962 -0.17345,0.06285 -0.24013,0.123259 -0.0701,0.0635 -0.1046,0.157617 -0.1569,0.236426 0.006,0.637887 0.69976,1.066543 1.03499,1.552943 0.2029,0.19581 0.31981,0.333647 0.5624,0.476025 1.03489,0.60737 2.8254,2.215835 4.46356,2.252567 0.56715,-0.01638 1.15158,-0.01712 1.68439,-0.236995 0.41959,-0.214998 0.77202,-0.526904 1.07467,-0.88787 0.24971,-0.331843 0.51699,-0.641411 0.82353,-0.924518 0.36237,-0.393769 0.76468,-0.751483 1.09189,-1.176155 0.32473,-0.402283 0.65548,-0.798832 0.98492,-1.197279 0.38592,-0.43493 0.81269,-0.891781 0.75959,-1.513504 -0.0989,-0.282977 -0.23243,-0.547103 -0.50451,-0.710123 -1.28674,-0.770964 -2.73934,-1.714363 -4.18414,-2.382248 -0.31696,-0.142591 -0.18816,-0.07908 -0.49968,-0.241916 -0.0842,-0.04399 -0.33399,-0.180771 -0.25204,-0.1328 5.52346,3.233082 3.86233,2.214608 2.66774,1.555681 -0.491,-0.364828 -0.93575,-0.796819 -1.38709,-1.20855 -0.34804,-0.438822 -0.71,-0.861444 -1.02498,-1.323316 -0.38273,-0.490353 -0.81952,-0.954855 -1.329,-1.31553 -0.54521,-0.477977 -1.0492,-0.996553 -1.53981,-1.530649 -0.66241,-0.577567 -1.30024,-1.175676 -1.93944,-1.777648 -0.61782,-0.611182 -1.24622,-1.211979 -1.87131,-1.810197 -0.42186,-0.550246 -0.8989,-1.028038 -1.36199,-1.542716 -0.50805,-0.613257 -1.02873,-1.213054 -1.47685,-1.873034 -0.37156,-0.509177 -0.86207,-0.926121 -1.11799,-1.513496 -0.37552,-0.601794 -0.80708,-1.168574 -1.07678,-1.827503 -0.19792,-0.484285 -0.294,-1.021215 -0.67593,-1.411068 -1.56285,-0.904544 -3.11872,-2.044269 -4.874803,-2.609236 -0.278167,-0.08672 -0.540946,-0.174994 -0.803976,-0.300795 -0.07074,-0.03383 -0.279173,-0.14256 -0.211527,-0.10291 2.393966,1.4032 4.322406,2.484518 2.997756,1.740941 -8.220702,-4.809759 -1.628082,-0.949783 -0.44469,-0.267462 0.0867,0.05001 -0.16968,-0.106527 -0.25143,-0.164336 -0.310929,-0.219881 -0.625855,-0.425693 -0.947586,-0.630919 -12.317579,-7.13978 7.887986,4.559487 -4.566152,-2.651447 -0.959808,-0.555728 1.915599,1.118387 2.876933,1.671471 0.173847,0.10002 -0.342908,-0.20814 -0.51436,-0.31221 -1.29144,-0.754141 -2.582881,-1.508282 -3.87432,-2.262423 -1.141924,-0.643619 -2.709969,-1.530806 2.220682,1.299978 0.14315,0.08219 -0.280197,-0.174579 -0.421116,-0.260533 -0.319479,-0.194867 -0.653693,-0.367423 -0.948881,-0.599603 -0.729967,-0.499865 -1.402934,-1.081528 -2.151094,-1.556152 -0.655145,-0.495899 -1.285113,-1.020884 -1.935303,-1.522994 -0.637286,-0.452476 -1.27939,-0.896185 -1.883465,-1.393271 -0.77552,-0.50565 -1.473245,-1.114382 -2.262635,-1.599623 -1.181907,-0.968771 -3.748355,-2.292177 -4.381669,-2.643545 -1.04857,-0.581755 2.071796,1.208097 3.11124,1.806007 0.08787,0.05054 -0.170828,-0.109171 -0.256243,-0.163756 -0.496184,-0.281571 -0.968849,-0.604986 -1.447125,-0.915521 -0.16278,-0.138182 -0.303565,-0.302664 -0.475756,-0.428924 -0.09168,-0.06722 -0.200964,-0.106608 -0.298175,-0.165548 -1.434607,-0.869806 -2.724464,-1.95159 -4.327027,-2.564286 -0.378566,-0.20939 -0.765053,-0.403275 -1.143593,-0.612588 -0.131688,-0.07282 -0.522245,-0.299285 -0.391961,-0.223981 2.45437,1.418595 6.196287,3.572369 -0.664144,-0.378994 -0.626671,-0.306945 -1.285097,-0.540168 -1.920775,-0.827413 -0.885049,-0.369947 -1.790816,-0.687402 -2.695442,-1.005754 -1.088187,-0.345935 -2.186231,-0.66113 -3.24171,-1.102463 C 66.55959,52.246754 65.645126,51.898084 64.754766,51.491661 64.114664,51.175348 63.481793,50.844979 62.828638,50.555892 62.056244,50.151929 61.2972,49.721986 60.508877,49.349399 59.897523,49.033913 59.297121,48.711282 58.624703,48.542016 57.979964,48.353245 57.329201,48.180372 56.698634,47.947165 55.995129,47.70436 55.27119,47.539048 54.554915,47.338623 53.718703,47.119932 52.895393,46.850799 52.04928,46.67061 50.510372,46.269985 47.786206,44.739946 53.658082,47.948598 52.53274,47.376641 54.16101,48.226234 53.154119,47.63189 51.742515,46.798655 50.379842,45.970941 48.93905,45.229454 48.407182,45.029667 47.85983,44.925155 47.288379,44.95866 c -0.661761,-0.0033 -1.323676,-0.0094 -1.985259,0.01139 -0.845459,0.0312 -1.709521,0.04999 -2.514284,0.339592 -0.302947,0.147447 -0.352866,0.148498 -0.607803,0.359558 -0.301972,0.25 -0.51449,0.581334 -0.922,0.684262 -0.746719,0.224307 -1.522493,0.245194 -2.297895,0.210244 z" />
    <path
       style="fill:#000000;stroke-width:0.264583"
       id="path4"
       d="m 65.410981,75.078408 c 1.23901,-0.07628 2.460097,-0.0227 3.673661,0.237551 0.19539,0.08337 0.397828,0.151839 0.586169,0.2501 0.20628,0.107622 0.799751,0.475303 0.594437,0.36585 -0.867326,-0.46237 -1.688442,-1.014338 -2.581373,-1.425085 -0.2974,-0.136806 0.524488,0.392065 0.780145,0.596521 0.613576,0.490697 0.958408,0.810014 1.548405,1.333053 1.335283,1.190157 2.704264,2.340671 4.006292,3.567753 0.835207,0.762717 1.637995,1.562534 2.496743,2.298795 0.977598,0.766226 1.89053,1.611027 2.816283,2.438305 1.363234,1.242076 2.616824,2.599317 3.899942,3.922765 1.192716,1.186664 2.322828,2.431489 3.441314,3.6874 0.420008,0.500298 0.212426,0.249555 0.622819,0.752166 0,0 3.596081,1.532805 3.596081,1.532805 v 0 c -0.416218,-0.513019 -0.205028,-0.253603 -0.63364,-0.778192 -1.155618,-1.265923 -2.307616,-2.534743 -3.528785,-3.738653 -1.263226,-1.307396 -2.489401,-2.655641 -3.801922,-3.912357 -0.923615,-0.826052 -1.831575,-1.673539 -2.797265,-2.449234 -0.898247,-0.69845 -1.66974,-1.545537 -2.536232,-2.283108 -1.30429,-1.254305 -2.708751,-2.394852 -4.056838,-3.600818 -0.649176,-0.588965 -0.860404,-0.792779 -1.528685,-1.351433 -0.24773,-0.20709 -0.479886,-0.436891 -0.75238,-0.610106 -1.313828,-0.835146 -2.659063,-1.62003 -4.000053,-2.410825 -0.585539,-0.345297 -0.641488,-0.326141 -1.266862,-0.525687 -1.251603,-0.213196 -2.508694,-0.21522 -3.775713,-0.220655 z" />
    <path
       style="fill:#000000;stroke-width:0.264583"
       id="path5"
       d="m 82.034025,71.795924 c 2.038848,1.506905 3.932037,3.182737 5.763694,4.931823 1.616961,1.6129 3.142488,3.31852 4.592129,5.082897 1.184188,1.391327 2.050521,2.997388 2.90476,4.600501 0.42721,0.785386 0.226436,0.399963 0.604557,1.155097 0,0 3.537397,1.602168 3.537397,1.602168 v 0 C 99.054234,88.387037 99.261205,88.781552 98.812281,87.986638 97.909742,86.385033 97.100085,84.716219 95.899615,83.305437 94.441854,81.519055 92.887588,79.809108 91.27726,78.1596 89.484723,76.448334 87.653685,74.782168 85.680909,73.278149 Z" />
    <path
       style="fill:#000000;stroke-width:0.264583"
       id="path6"
       d="m 82.666112,61.95863 c 1.79791,1.278698 3.318579,2.880142 4.758605,4.538412 1.667341,2.019748 3.246274,4.1078 4.996231,6.058189 1.582681,1.638622 3.118199,3.321626 4.631814,5.024038 1.189916,1.260406 2.147795,2.696466 2.979108,4.210407 0.58395,1.272487 1.3348,2.446567 2.14514,3.583413 0.73549,1.025882 1.3724,2.116733 2.05808,3.175394 0.80195,1.235488 1.64579,2.442761 2.54245,3.611161 0.54837,0.756256 1.17927,1.437724 1.92545,1.999167 0.4931,0.336717 0.98676,0.67382 1.46879,1.026377 0.0694,0.05102 0.13877,0.102037 0.20816,0.153057 0,0 3.66399,1.477287 3.66399,1.477287 v 0 c -0.0666,-0.06146 -0.13327,-0.12292 -0.1999,-0.18438 -0.50097,-0.333608 -0.97435,-0.705466 -1.47732,-1.035473 -0.80287,-0.488688 -1.46421,-1.1595 -2.02899,-1.908032 -0.90344,-1.159592 -1.77502,-2.34215 -2.5613,-3.585935 -0.69332,-1.050359 -1.30445,-2.15306 -2.03054,-3.182157 -0.82025,-1.130895 -1.6397,-2.264886 -2.20208,-3.55386 -0.82131,-1.553691 -1.7706,-3.036961 -2.99154,-4.312245 -1.513509,-1.711261 -3.053458,-3.400827 -4.64866,-5.036468 -1.781691,-1.929413 -3.376504,-4.0121 -5.021752,-6.056823 -1.39351,-1.646072 -2.856696,-3.23827 -4.572127,-4.558721 z" />
    <path
       style="fill:#000000;stroke-width:0.264583"
       id="path7"
       d="m 133.26788,116.50694 c 0.14745,0.01 0.29807,-0.003 0.44234,0.0292 0.8,0.17729 1.70044,0.73177 1.57275,0.65354 -0.70698,-0.4332 -1.38694,-0.9427 -2.1694,-1.21699 -0.4821,-0.16899 0.84126,0.58069 1.24545,0.89311 0.47504,0.36718 0.92719,0.76304 1.39079,1.14457 2.02393,1.81942 4.03723,3.64957 6.07284,5.45595 0,0 3.50924,1.42617 3.50924,1.42617 v 0 c -2.09044,-1.80278 -4.17248,-3.61327 -6.18143,-5.50789 -0.51775,-0.44442 -1.88707,-1.66262 -2.52352,-2.05704 -1.4169,-0.87811 -2.86777,-1.70121 -4.32688,-2.50724 -0.68737,-0.37972 -1.44968,-0.61763 -2.23446,-0.64001 z" />
    <path
       style="fill:#000000;stroke-width:0.264583"
       id="path8"
       d="m 116.16268,138.52359 c -0.0359,-0.15583 2.28139,1.17473 1.73632,0.83508 -0.59189,-0.36883 -1.12944,-0.96617 -1.82443,-1.02407 -0.59042,-0.0492 0.99154,0.64942 1.47293,0.99479 1.10126,0.79009 1.6313,1.25967 2.66506,2.11744 2.24404,1.95251 3.60689,4.60355 5.03333,7.15839 0.16749,0.29042 0.33498,0.58084 0.50248,0.87126 0,0 3.48247,1.54484 3.48247,1.54484 v 0 c -0.18046,-0.29382 -0.36092,-0.58764 -0.54138,-0.88146 -1.50158,-2.55925 -2.80907,-5.29934 -5.05639,-7.31217 -1.31416,-1.10248 -2.63501,-2.26387 -4.10411,-3.16132 -1.50333,-0.91836 -3.03343,-1.79256 -4.56634,-2.66063 -0.93908,-0.5318 -1.06534,-0.55014 -1.93837,-0.88197 z" />
    <path
       style="fill:#000000;stroke-width:0.264583"
       id="path9"
       d="m 65.623726,82.806816 c 0.636304,2.235372 1.537401,4.369975 2.628415,6.417757 0.925486,1.489686 1.769973,3.123856 3.061865,4.344879 0.176336,0.166664 0.374904,0.308113 0.562358,0.462169 0,0 3.590322,1.429366 3.590322,1.429366 v 0 c -0.1992,-0.138186 -0.411202,-0.259535 -0.597599,-0.414559 -1.377338,-1.145543 -2.244754,-2.814482 -3.20072,-4.289565 -1.086434,-1.976147 -1.993529,-4.047774 -2.503741,-6.253806 z" />
    <circle
       id="path11"
       style="fill:#000000;stroke:#000000;stroke-width:0.264583"
       cx="116.20859"
       cy="123.62899"
       r="0.035600044" />
    <ellipse
       style="fill:#000000;stroke-width:0.264583"
       id="path12"
       cx="122.02796"
       cy="121.70264"
       rx="0.4252232"
       ry="0.23623511" />
    <ellipse
       style="fill:#000000;stroke-width:0.264583"
       id="path13"
       cx="109.97997"
       cy="132.30959"
       rx="1.0866816"
       ry="1.2520461" />
    <ellipse
       style="fill:#000000;stroke-width:0.264583"
       id="path14"
       cx="143.24188"
       cy="106.86707"
       rx="0.56696427"
       ry="0.47247022" />
    <ellipse
       style="fill:#000000;stroke-width:0.264583"
       id="path15"
       cx="138.25731"
       cy="130.7032"
       rx="1.8662575"
       ry="1.2047991" />
    <ellipse
       style="fill:#000000;stroke-width:0.264583"
       id="path16"
       cx="125.12264"
       cy="109.13493"
       rx="0.77957588"
       ry="1.0866816" />
    <ellipse
       style="fill:#000000;stroke-width:0.264583"
       id="path17"
       cx="116.31107"
       cy="122.64758"
       rx="0.9921875"
       ry="1.6536458" />
    <ellipse
       style="fill:#000000;stroke-width:0.264583"
       id="path18"
       cx="111.20839"
       cy="146.90892"
       rx="1.2284226"
       ry="1.2992932" />
    <ellipse
       style="fill:#000000;stroke-width:0.264583"
       id="path19"
       cx="123.20914"
       cy="128.71883"
       rx="0.70870537"
       ry="0.77957588" />
    <ellipse
       style="fill:#000000;stroke-width:0.264583"
       id="path20"
       cx="131.24113"
       cy="120.49784"
       rx="0.8504464"
       ry="0.92131698" />
    <ellipse
       style="fill:#000000;stroke-width:0.264583"
       id="path21"
       cx="142.43867"
       cy="115.9385"
       rx="1.984375"
       ry="1.4174107" />
  </g>
</svg>
