<?xml version="1.0" encoding="UTF-8" standalone="no"?>
<!-- Created with Inkscape (http://www.inkscape.org/) -->

<svg
   width="127"
   height="127"
   viewBox="0 0 127 127"
   version="1.1"
   id="svg4501"
   inkscape:version="1.4 (86a8ad7, 2024-10-11)"
   sodipodi:docname="Guppy_orange.svg"
   xmlns:inkscape="http://www.inkscape.org/namespaces/inkscape"
   xmlns:sodipodi="http://sodipodi.sourceforge.net/DTD/sodipodi-0.dtd"
   xmlns="http://www.w3.org/2000/svg"
   xmlns:svg="http://www.w3.org/2000/svg"
   xmlns:rdf="http://www.w3.org/1999/02/22-rdf-syntax-ns#"
   xmlns:cc="http://creativecommons.org/ns#"
   xmlns:dc="http://purl.org/dc/elements/1.1/">
  <g
     inkscape:label="Ebene 1"
     inkscape:groupmode="layer"
     id="layer1"
     transform="translate(-38.967696,-44.784485)">
    <path
       style="fill:none;fill-opacity:1;fill-rule:evenodd;stroke:#000000;stroke-width:0.264583px;stroke-linecap:butt;stroke-linejoin:miter;stroke-opacity:1"
       d="m 132.8827,130.80501 c 1.2545,-0.10639 9.4855,6.50457 15.4768,2.10091 3.51285,-2.58199 11.40914,-2.89069 11.844,-3.49427 0.56033,-0.77775 4.58724,-8.76515 2.50564,-20.30252 -3.09203,-17.137684 4.16757,-15.798744 3.7649,-22.477116 -0.32369,-5.368508 -7.93499,-10.889264 -8.28251,-14.4042 -0.31617,-3.197827 -4.60097,-5.194792 -4.63182,-5.605714 -0.14567,-1.940291 -8.99518,8.055346 -9.8946,10.309507 -1.63529,4.098443 -8.47141,8.064764 -11.22397,10.499803 -3.17575,2.809417 -6.86659,4.89193 -8.03283,4.602914 -3.18346,-0.788924 -11.76576,-1.032019 -14.61201,-2.088746 -1.70285,-0.632217 5.22733,0.28537 7.74852,-0.283483 1.70659,-0.385055 3.98998,-0.538383 4.81919,-2.078871 0.68235,-1.267653 0.28129,-4.471366 -0.75595,-4.25223 0,0 -4.52139,1.450024 -6.70908,1.41741 -1.43175,-0.02134 -5.931,-1.320079 -8.92969,-1.795388 -1.61297,-0.255665 -0.95089,-0.168579 -4.86642,-0.566962 -1.857487,-0.188989 -7.544991,2.206244 -11.528272,2.551337 -19.467023,1.686532 -25.088168,4.110492 -25.088168,4.110492 -10.590224,3.792678 -22.39162,9.708573 -22.914808,12.000747 0,0 -0.127367,1.43011 0.283484,1.93713 2.536515,3.13024 6.548378,4.93667 9.548646,6.67468 2.571974,1.48991 6.366963,1.41308 9.255669,2.11326 2.342939,0.5679 4.52259,1.76229 6.898066,2.17336 4.969366,0.85995 10.08692,0.90136 15.119046,0.56697 4.42632,-0.29414 8.989958,0.29211 13.418155,-0.28348 1.821312,-0.23674 3.326455,-1.61169 5.102682,-2.07887 2.39547,-0.63005 7.40392,-0.81131 7.40392,-0.81131 0.31442,-0.26839 -1.24533,-1.6348 -2.62066,-2.33512 -1.37533,-0.70033 -8.982929,-0.56076 -8.396346,-0.87768 0.93812,-0.50684 8.206816,-0.0633 9.403886,0.18801 4.06274,0.85283 8.1431,0.69157 11.73782,1.66273 1.19121,0.32183 3.53426,7.32459 6.9254,12.91407 2.76933,4.56456 6.73445,7.95476 7.23131,7.91263"
       id="path5061"
       inkscape:connector-curvature="0"
       sodipodi:nodetypes="csssssssssssssssssccsssssssssssssc" />
  </g>
</svg>
