<?xml version="1.0" encoding="UTF-8" standalone="no"?>
<!-- Created with Inkscape (http://www.inkscape.org/) -->

<svg
   width="125.6839mm"
   height="68.329033mm"
   viewBox="0 0 125.6839 68.329033"
   version="1.1"
   id="svg4501"
   inkscape:version="1.4 (86a8ad7, 2024-10-11)"
   sodipodi:docname="Guppy_orange.svg"
   xmlns:inkscape="http://www.inkscape.org/namespaces/inkscape"
   xmlns:sodipodi="http://sodipodi.sourceforge.net/DTD/sodipodi-0.dtd"
   xmlns="http://www.w3.org/2000/svg"
   xmlns:svg="http://www.w3.org/2000/svg"
   xmlns:rdf="http://www.w3.org/1999/02/22-rdf-syntax-ns#"
   xmlns:cc="http://creativecommons.org/ns#"
   xmlns:dc="http://purl.org/dc/elements/1.1/">
  <defs
     id="defs4495">
    <inkscape:path-effect
       effect="simplify"
       id="path-effect8"
       is_visible="true"
       lpeversion="1.3"
       threshold="17,241379"
       steps="1"
       smooth_angles="360"
       helper_size="0"
       simplify_individual_paths="false"
       simplify_just_coalesce="false" />
    <inkscape:path-effect
       effect="simplify"
       id="path-effect7"
       is_visible="true"
       lpeversion="1.3"
       threshold="17,241379"
       steps="1"
       smooth_angles="360"
       helper_size="0"
       simplify_individual_paths="false"
       simplify_just_coalesce="false" />
    <inkscape:path-effect
       effect="simplify"
       id="path-effect6"
       is_visible="true"
       lpeversion="1.3"
       threshold="17,241379"
       steps="1"
       smooth_angles="360"
       helper_size="0"
       simplify_individual_paths="false"
       simplify_just_coalesce="false" />
    <inkscape:path-effect
       effect="simplify"
       id="path-effect5"
       is_visible="true"
       lpeversion="1.3"
       threshold="17,241379"
       steps="1"
       smooth_angles="360"
       helper_size="0"
       simplify_individual_paths="false"
       simplify_just_coalesce="false" />
    <inkscape:path-effect
       effect="simplify"
       id="path-effect4"
       is_visible="true"
       lpeversion="1.3"
       threshold="17,241379"
       steps="1"
       smooth_angles="360"
       helper_size="0"
       simplify_individual_paths="false"
       simplify_just_coalesce="false" />
    <inkscape:path-effect
       effect="simplify"
       id="path-effect3"
       is_visible="true"
       lpeversion="1.3"
       threshold="17,241379"
       steps="1"
       smooth_angles="360"
       helper_size="0"
       simplify_individual_paths="false"
       simplify_just_coalesce="false" />
  </defs>
  <sodipodi:namedview
     id="base"
     pagecolor="#ffffff"
     bordercolor="#666666"
     borderopacity="1.0"
     inkscape:pageopacity="0.0"
     inkscape:pageshadow="2"
     inkscape:zoom="1.979899"
     inkscape:cx="282.33764"
     inkscape:cy="82.579971"
     inkscape:document-units="mm"
     inkscape:current-layer="layer1"
     showgrid="false"
     inkscape:pagecheckerboard="true"
     inkscape:window-width="1920"
     inkscape:window-height="1009"
     inkscape:window-x="-8"
     inkscape:window-y="-8"
     inkscape:window-maximized="1"
     fit-margin-top="0"
     fit-margin-left="0"
     fit-margin-right="0"
     fit-margin-bottom="0"
     inkscape:showpageshadow="2"
     inkscape:deskcolor="#d1d1d1" />
  <metadata
     id="metadata4498">
    <rdf:RDF>
      <cc:Work
         rdf:about="">
        <dc:format>image/svg+xml</dc:format>
        <dc:type
           rdf:resource="http://purl.org/dc/dcmitype/StillImage" />
      </cc:Work>
    </rdf:RDF>
  </metadata>
  <g
     inkscape:label="Ebene 1"
     inkscape:groupmode="layer"
     id="layer1"
     transform="translate(-38.967696,-44.784485)">
    <circle
       style="fill:#000000;fill-opacity:1;stroke:none;stroke-width:0.26499999;stroke-miterlimit:4;stroke-dasharray:none;stroke-dashoffset:0;stroke-opacity:1"
       id="path5057"
       cx="48.947918"
       cy="79.852676"
       r="1.5119048" />
    <path
       style="fill:none;fill-rule:evenodd;stroke:#000000;stroke-width:0.26458332px;stroke-linecap:butt;stroke-linejoin:miter;stroke-opacity:1"
       d="m 49.892857,77.017855 c 1.170257,0.237419 2.18303,1.432089 2.139542,2.323628 -0.06913,1.417231 -1.950556,2.779052 -1.950556,2.779052"
       id="path5059"
       inkscape:connector-curvature="0"
       sodipodi:nodetypes="csc" />
    <path
       style="fill:none;fill-opacity:1;stroke:#000000;stroke-width:0.264999"
       d="m 39.234966,78.594081 c 0.444801,0.282542 1.00258,-0.08872 0.25485,-0.05711 -0.579325,0.02449 1.06007,0.0039 1.303757,-0.360471 0.580006,-0.867356 1.859155,-0.931523 2.399593,-1.573831 0.628847,-0.747381 1.69838,-1.242283 2.723538,-1.616726 0.858934,-0.313729 2.051411,-0.382747 2.656146,-1.16542 0.648198,-0.838925 1.709425,-1.029854 2.689244,-1.240005 1.114571,-0.239053 1.878964,-1.172667 2.956559,-1.456752 0.661288,-0.174335 1.760936,-1.061847 2.048725,-0.885924 0.375466,0.22952 1.349642,-0.502008 2.016393,-0.594407 1.189214,-0.164802 2.209005,-1.083082 3.420899,-1.139206 1.138617,-0.05273 2.230151,-0.454167 3.352681,-0.669741 0.244496,-0.04695 0.270605,0.01167 0.999678,-0.189362 0.956103,-0.263632 2.006913,-0.150997 2.913983,-0.535416 1.182749,-0.501251 2.427145,-0.793989 3.701733,-0.984188 0.797984,-0.119078 1.45529,-0.569116 2.441227,-0.375796 0.836316,0.163983 1.588368,-0.170294 2.392079,-0.304988 2.081358,-0.348813 4.127114,-0.806251 6.170603,-1.390958 1.271407,-0.36379 2.562803,-0.470194 3.90603,-0.769418 1.071505,-0.238694 2.206536,-0.808976 3.249787,-0.464291 1.100012,0.363438 2.059067,-0.245281 3.127017,-0.336296 1.005415,-0.08569 1.84225,-0.701249 2.604789,-1.262213 0.794018,-0.584122 1.945597,-0.400059 2.931186,-0.460509 1.424697,-0.08738 2.860697,-0.3265 4.285097,-0.207665 0.96923,0.08086 1.93496,0.152468 2.80454,0.638777 0.78129,0.436934 1.68019,0.522289 2.40721,0.831205 1.97218,0.837995 4.18258,0.108122 6.23285,0.463749 1.01779,0.17654 1.91543,-0.700446 2.71954,-0.661673 0.87621,0.04225 1.46967,-0.800187 2.27293,0.598829 0.44493,0.774924 0.0674,1.823736 0.11359,2.662672 0.0474,0.86018 -0.32683,1.521437 -1.2953,1.532231 -1.63017,0.01817 -3.29364,0.51057 -4.88835,0.122679 -1.08363,-0.263579 -2.10977,0.01378 -3.0839,0.292818 -1.05057,0.300932 -2.25648,0.542479 -3.4077,0.467721 -0.54544,-0.03542 -1.95798,0.642001 -1.47194,0.694249 1.24468,0.133798 2.64184,-0.605082 3.74372,-0.02608 0.86223,0.453079 1.76199,0.210907 2.67332,0.53119 1.05776,0.371748 1.87774,0.4252 2.78393,0.420631 1.10126,-0.0056 2.07229,0.767863 3.1392,0.676123 1.00889,-0.08675 2.03584,-0.1167 3.02978,0.109308 1.37915,0.313598 2.9296,0.195176 3.83903,-0.771834 0.73594,-0.782532 1.55058,-1.376549 2.42894,-2.150992 0.83813,-0.738964 1.45717,-1.637602 2.26085,-2.487168 0.81751,-0.864183 1.13917,-1.782834 2.16196,-2.608091 0.90746,-0.732203 1.65929,-1.629306 2.6271,-2.348871 0.89161,-0.662917 1.80272,-1.168295 2.58465,-2.061077 0.91278,-1.04218 2.1579,-1.721229 2.88787,-2.979687 0.54526,-0.94003 0.93162,-1.840027 1.65572,-2.766607 0.55408,-0.709026 1.12143,-1.354992 1.57387,-2.170796 0.4377,-0.789236 1.5147,-1.121093 2.08022,-1.759778 0.54445,-0.614892 1.11312,-0.848212 1.93919,-1.223741 0.95049,-0.432093 1.27768,-1.914265 2.28307,-1.957057 1.1533,-0.04909 1.72234,0.303155 2.83178,1.324043 0.81486,0.749815 1.32363,1.698838 1.99086,2.577732 0.66795,0.879854 1.45425,1.73392 1.73356,2.808692 0.26234,1.009462 0.91944,1.943383 1.58957,2.793386 0.60858,0.771935 0.89131,1.575315 1.4112,2.355416 0.67149,1.007592 1.15834,2.143802 1.85983,3.183973 0.51905,0.769655 0.94098,1.779947 1.42175,2.473318 0.49588,0.715161 1.03645,1.791333 1.2623,2.76581 0.24186,1.043534 0.86035,1.892963 1.09925,2.966669 0.35673,1.603283 -0.0719,3.202522 -0.40057,4.856347 -0.21178,1.065519 -0.8481,1.795788 -0.89528,2.895134 -0.0579,1.349685 -0.305,2.668097 -1.06721,3.773249 -0.57366,0.831767 -0.47275,1.832047 -0.86518,2.740618 -0.67999,1.574314 -0.55172,3.461924 -1.54025,4.876561 -0.58085,0.831228 -0.7909,1.811316 -1.03467,2.806077 -0.23404,0.955066 0.55046,1.775403 0.5411,2.669355 -0.0128,1.225879 0.0116,2.468685 -0.20811,3.687577 -0.23209,1.287441 -2.04666,1.235882 -2.13415,2.455621 -0.0838,1.168395 -0.0695,2.399211 -0.49236,3.477821 -0.34379,0.87688 -1.08716,1.8509 -1.21539,2.81061 -0.15097,1.12993 -0.92872,2.21294 -0.80549,3.32193 0.15508,1.39569 -1.63097,2.01284 -2.56096,1.54713 -1.04908,-0.52535 -2.11506,-0.65094 -3.26634,-0.64487 -1.07038,0.006 -3.0912,0.27141 -2.95535,1.44008 0.12128,1.04326 -1.00753,1.2755 -1.77082,1.81927 -0.8295,0.59094 -2.08677,0.38046 -2.84639,-0.0857 -0.88892,-0.54552 -2.33335,-0.0442 -3.03354,-0.84971 -0.62497,-0.71897 -2.39196,-0.50685 -2.75543,-0.67643 -0.89948,-0.41965 -1.92089,-0.35236 -2.70545,-0.88569 -0.85697,-0.58254 -2.0734,-1.5343 -2.70352,-2.00616 -0.79694,-0.59678 -1.42815,-1.49363 -2.4552,-1.81835 -0.99659,-0.31509 -2.20661,-0.6252 -2.61024,-1.56238 -0.44469,-1.0325 -0.76389,-1.72212 -1.20299,-2.76382 -0.33905,-0.80436 -1.00082,-1.4848 -1.20243,-2.314296 -0.2579,-1.061103 -0.79626,-2.019699 -1.36647,-2.95642 -0.40226,-0.660811 -1.26358,-1.605223 -1.45429,-1.928751 -0.27731,-0.470443 -0.24785,-1.07809 -0.57442,-1.441602 -0.49056,-0.546053 -0.72108,-1.070008 -1.20055,-1.736544 -0.67148,-0.933452 0.59869,-1.615148 0.51973,-2.441256 -0.0984,-1.029849 -1.46377,-0.984033 -2.26123,-0.886214 -1.02739,0.126022 -2.00578,-0.358295 -3.01595,-0.341719 -1.03942,0.01706 -3.43264,0.143792 -2.98442,-0.689351 0.11319,-0.210383 -1.33683,-0.482239 -1.92046,-0.459585 -1.00735,0.0391 -1.98225,-0.131673 -2.98083,-0.214766 -1.14429,-0.09522 -2.35796,-0.03362 -3.48606,-0.366246 -0.91231,-0.269004 -1.89976,-0.493376 -2.913533,-0.4599 -1.290956,0.04263 -2.548534,0.106402 -3.842691,-0.288837 -0.593471,-0.181248 -2.222311,0.259048 -1.198696,0.863397 1.092171,0.644824 2.299302,0.605194 3.613786,0.893801 1.584994,0.347999 3.308534,-0.339716 4.806684,0.250286 0.80511,0.317067 1.4568,0.346706 2.30813,0.858302 0.3324,0.199746 0.7966,1.393453 -0.22306,1.590067 -1.8089,0.348798 -3.71478,-0.31472 -5.479026,0.133633 -1.058887,0.269098 -2.139434,0.619551 -2.80633,1.469982 -0.642364,0.819148 -1.808356,0.944763 -2.874151,0.938808 -1.872897,-0.01046 -3.770769,-0.325368 -5.618645,-0.02763 -2.132683,0.343624 -4.283997,0.02714 -6.430797,0.02427 -2.087249,-0.0028 -4.28537,0.723372 -6.260612,0.05205 -1.208729,-0.410808 -2.477261,-0.767611 -3.850563,-0.806298 -1.123747,-0.03166 -2.114367,-0.587514 -3.271295,-0.639661 -1.021004,-0.04602 -2.089724,0.120336 -2.968421,-0.399995 -0.832345,-0.492882 -1.77428,-0.612665 -2.802381,-0.611524 -1.095938,0.0012 -2.160092,-0.172279 -3.143404,-0.589327 -1.00281,-0.425317 -2.12319,-0.527923 -3.137429,-0.74702 -0.880182,-0.190138 -1.648427,-0.267625 -2.564475,-0.292344 -1.312002,-0.0354 -2.700416,-0.06092 -3.725979,-0.911008 -0.673224,-0.558037 -1.671351,-0.740823 -2.521434,-1.157679 -0.915954,-0.449157 -1.679506,-0.886056 -2.657338,-1.252285 -1.181399,-0.442472 -1.368259,-2.921883 -2.42879,-2.400248 -0.431606,0.212291 -0.808818,-0.335586 -0.935443,-0.668173 -0.175428,-0.460771 -0.995623,-1.102056 -1.469984,-1.870887 -0.227205,-0.368248 -0.265626,-0.925944 -0.534537,-1.336347 z"
       id="path3"
       inkscape:path-effect="#path-effect3"
       inkscape:original-d="m 39.234966,78.594081 c 0.222724,0 0.668173,0.222723 0.668173,0 0,-0.222727 -0.879469,0.07043 -0.668173,0 0.340703,-0.113567 0.716919,-0.0632 1.069078,-0.133636 0.504611,-0.100923 0.775025,-0.721598 1.202712,-0.935442 0.192436,-0.09622 0.449652,-0.15801 0.668174,-0.267272 0.188149,-0.09407 0.07912,-0.173194 0.26727,-0.267269 0.172367,-0.08618 0.511404,-0.05525 0.668174,-0.133633 0.06137,-0.03069 0.07032,-0.468892 0.267269,-0.53454 0.08452,-0.02817 0.187585,0.03984 0.26727,0 0.0056,-0.0028 0.18635,-0.346959 0.267269,-0.400905 0.26727,-0.178178 0.526367,-0.369273 0.801809,-0.534538 0.159321,-0.09559 0.480901,-0.07121 0.668174,-0.133635 0.188988,-0.06299 0.341276,-0.218954 0.534539,-0.267269 0.08643,-0.02162 0.184551,0.03309 0.267269,0 0.762424,-0.304969 0.08444,-0.206328 0.668174,-0.400905 0.174238,-0.05808 0.365726,-0.06128 0.534539,-0.133635 0.10094,-0.04326 0.978342,-0.46195 1.069078,-0.534538 0.705129,-0.564105 0.05967,-0.292844 0.935443,-0.668174 0.42746,-0.183197 0.899285,-0.241972 1.336348,-0.400904 0.187217,-0.06808 0.356359,-0.178181 0.534539,-0.267269 0.222725,-0.08909 0.440602,-0.191413 0.668174,-0.267272 0.174239,-0.05808 0.370265,-0.0515 0.534539,-0.133633 0.430959,-0.215479 0.78152,-0.567814 1.202713,-0.801809 0.460262,-0.255701 1.029124,-0.403659 1.469982,-0.668174 0.108038,-0.06482 0.154579,-0.210924 0.26727,-0.26727 0.07968,-0.03984 0.182751,0.02817 0.267269,0 0.05976,-0.01992 0.07514,-0.110238 0.133635,-0.133634 1.565415,-0.626167 -0.77966,0.526233 1.336348,-0.26727 0.11797,-0.04424 0.150289,-0.220477 0.267269,-0.267269 0.124077,-0.04963 0.269088,0.02197 0.400905,0 0.324247,-0.05404 0.626801,-0.205542 0.935443,-0.26727 0.13104,-0.02621 0.269864,0.02621 0.400904,0 0.490013,-0.098 1.558492,-0.548022 1.870887,-0.668174 0.318509,-0.122504 0.587397,-0.351183 0.935443,-0.400904 0.176389,-0.0252 0.357449,0.01968 0.534539,0 0.996939,-0.110771 1.948738,-0.52657 2.939964,-0.668174 0.17639,-0.0252 0.36168,0.04321 0.534541,0 1.400397,-0.350099 -1.514708,0.149388 1.603615,-0.400904 0.353669,-0.06241 0.719143,-0.05288 1.069079,-0.133635 0.233738,-0.05394 0.440602,-0.191412 0.668173,-0.267269 0.776478,-0.258826 1.617263,-0.319586 2.405428,-0.53454 0.271798,-0.07413 0.528492,-0.19894 0.801806,-0.267269 1.850451,-0.462612 -0.04315,0.06344 1.33635,-0.133635 0.139446,-0.01992 0.267269,-0.08909 0.400904,-0.133635 0.178179,-0.04454 0.352293,-0.110854 0.534538,-0.133634 0.438597,-0.05482 0.897752,0.05482 1.336347,0 0.396653,0.07266 0.70675,-0.206882 1.069078,-0.26727 1.069687,-0.178281 2.13038,-0.355063 3.207237,-0.534539 2.104014,-0.350669 4.091175,-1.326047 6.147197,-1.737252 0.355867,-0.07117 1.012615,0.161866 1.336349,0 0.758891,-0.379446 1.184069,-0.08288 1.737252,-0.267269 0.09449,-0.0315 0.169597,-0.114101 0.267268,-0.133635 0.746565,-0.149313 1.850615,0.229482 2.539061,0 0.226208,-0.0754 0.437378,-0.20957 0.668174,-0.26727 0.621826,-0.155456 0.789328,0.07306 1.469982,-0.267269 0.106908,-0.05345 0.293997,0.05345 0.400905,0 0.313579,-0.15679 0.642297,-0.387966 0.935442,-0.534539 0.213815,-0.106908 0.320725,-0.427631 0.53454,-0.534539 0.07968,-0.03984 0.187585,0.03984 0.267269,0 0.112692,-0.05635 0.15458,-0.210924 0.267269,-0.26727 0.179245,-0.08962 1.665248,-0.113071 1.870887,-0.133634 0.222137,-0.02221 4.624631,-0.427198 4.944491,-0.26727 0.31678,0.158393 0.41091,0.06849 0.8018,0.133635 0.38748,0.06458 0.68161,0.336325 1.06908,0.400904 0.37574,0.06262 0.70374,0.0423 1.06908,0.133635 0.41405,0.103513 0.79317,0.432154 1.20271,0.534539 0.17286,0.04321 0.36551,-0.05635 0.53454,0 0.0598,0.01992 0.0739,0.113714 0.13364,0.133635 0.0845,0.02817 0.18275,-0.02817 0.26727,0 0.0598,0.01992 0.0891,0.08909 0.13363,0.133634 0.0891,0.04454 0.1715,0.106271 0.26727,0.133635 0.43679,0.124798 0.88486,0.217104 1.33635,0.26727 1.12047,0.124497 2.34522,0 3.4745,0 0.55297,0 1.76904,0.167584 2.27179,0 0.2851,-0.09503 0.55168,-0.27584 0.80181,-0.400905 0.0807,-0.04034 0.33913,0.06177 0.40091,0 0.0315,-0.0315 -0.0399,-0.113713 0,-0.133634 0.21301,-0.106506 0.92056,-0.03959 1.20271,-0.133635 0.30295,-0.100983 0.68721,-0.458206 1.06908,-0.26727 0.12495,0.06248 0.35821,0.54011 0.4009,0.668174 0.0282,0.08452 -0.0282,0.182752 0,0.26727 0.056,0.168121 0.20155,0.337367 0.26727,0.534539 0.048,0.144039 0.068,1.666773 0,1.870886 -0.0199,0.05976 -0.10546,0.07729 -0.13363,0.133635 -0.0713,0.142544 0.0713,0.391996 0,0.534539 -0.0282,0.05635 -0.11836,0.07252 -0.13364,0.133635 -0.0324,0.129645 0.0324,0.27126 0,0.400904 -0.0927,0.370771 -0.12186,-0.01177 -0.26727,0.133635 -0.0315,0.0315 0.0315,0.102137 0,0.133635 -0.11357,0.113567 -0.25725,0.195443 -0.4009,0.267269 -0.24759,0.123795 -2.56753,0 -3.0736,0 -0.66532,0 -1.23702,-0.02483 -1.87089,0.133635 -0.58694,0.146736 -1.28394,-0.146736 -1.87089,0 -0.61422,0.153556 -0.0303,0.133635 -0.4009,0.133635 -0.29761,0 -0.32229,0.06289 -0.53454,0.133635 -0.21129,0.07043 -0.4521,-0.05402 -0.66817,0 -0.0611,0.01528 -0.0725,0.118356 -0.13364,0.133634 -0.21607,0.05402 -0.45687,-0.07043 -0.66817,0 -0.0598,0.01992 -0.0739,0.113714 -0.13364,0.133635 -0.21548,0.07183 -0.44544,0.08909 -0.66817,0.133635 -0.62913,0.125826 -1.31201,-0.145804 -1.87088,0.133635 -0.16362,0.08181 -0.85726,0.06303 -1.06909,0.133634 -0.11952,0.03984 -0.15457,0.210925 -0.26726,0.26727 -0.0399,0.01992 -0.10214,-0.0315 -0.13364,0 -0.0315,0.0315 0.0315,0.102137 0,0.133635 -0.0315,0.0315 -0.10213,-0.0315 -0.13363,0 -0.0315,0.0315 -0.0432,0.122831 0,0.133634 0.63293,0.158234 2.42083,0 3.20723,0 0.18128,0 0.50595,-0.05407 0.66817,0 0.24257,0.08085 0.34666,0.18689 0.66818,0.26727 0.26727,0.06682 0,-0.133635 0.4009,0 0.0598,0.01992 0.0739,0.113714 0.13364,0.133635 0.31271,0.104237 0.74338,-0.05428 1.06908,0 0.27789,0.04632 0.52555,0.212018 0.80181,0.267269 3.59852,0.719706 -0.38731,-0.138277 3.20723,0.400904 1.24982,0.187474 0.7916,0.264718 1.87088,0.53454 0.37211,0.09303 0.82597,-0.06279 1.20272,0 0.78588,0.130981 1.46215,0.133634 2.27179,0.133634 0.54677,0 1.20311,0.106828 1.73725,0 0.35449,-0.0709 0.60213,-0.305671 0.93544,-0.400904 0.28919,-0.08262 1.19827,-0.317163 1.46999,-0.534539 0.54626,-0.437008 -0.0103,-0.341251 0.53454,-0.668174 0.12078,-0.07247 0.27491,-0.07064 0.4009,-0.133635 0.4561,-0.22805 0.72616,-0.726163 1.06908,-1.069078 0.62998,-0.62998 1.49888,-1.112427 2.00452,-1.870886 0.54872,-0.82308 -0.0122,-0.251974 0.53454,-0.935444 0.16974,-0.212182 0.41242,-0.423945 0.53454,-0.668173 0.12599,-0.251985 0.0869,-0.58538 0.26727,-0.801809 0.32514,-0.390172 0.84358,-0.576311 1.20271,-0.935443 0.11357,-0.113568 0.1464,-0.295143 0.26727,-0.400905 0.24174,-0.211523 0.56007,-0.323015 0.80181,-0.534539 0.31154,-0.272596 0.53132,-0.867016 0.93544,-1.069078 0.65889,-0.329445 1.33772,-0.802632 2.00452,-1.202713 0.17388,-0.104325 0.52648,-0.259213 0.66818,-0.400904 0.22713,-0.227135 0.3074,-0.574673 0.53453,-0.801809 0.11357,-0.113567 0.26728,-0.178179 0.40091,-0.267269 0.17818,-0.222725 0.34672,-0.453519 0.53454,-0.668174 0.38818,-0.44363 1.00896,-0.578005 1.33635,-1.069078 0.34599,-0.518988 0.67461,-1.016754 0.93544,-1.603617 0.19485,-0.438414 0.29651,-0.919796 0.53454,-1.336348 0.16613,-0.290721 0.58693,-0.543959 0.80181,-0.801808 0.85587,-1.027048 -0.0168,-0.004 0.66817,-1.202713 0.11051,-0.193379 0.24342,-0.377049 0.40091,-0.534539 0.32457,-0.324573 0.19623,0.03974 0.4009,-0.26727 0.14666,-0.219987 0.25425,-0.448187 0.40091,-0.668174 0.095,-0.142445 1.28153,-1.139896 1.46998,-1.202713 0.0845,-0.02817 0.19314,0.04942 0.26727,0 0.0829,-0.05525 0.0632,-0.196837 0.13363,-0.267269 0.0246,-0.02463 0.37628,-0.109011 0.40091,-0.133635 0.0704,-0.07043 0.0508,-0.212018 0.13363,-0.267269 0.0741,-0.04942 0.18759,0.03984 0.26727,0 0.0398,-0.01992 -0.0315,-0.102137 0,-0.133635 0.20671,-0.206714 0.67893,-0.229895 0.93544,-0.400904 0.29743,-0.198281 0.65912,-0.437906 0.93545,-0.668174 0.36397,-0.303309 0.95659,-1.209764 1.33634,-1.336348 0.30019,-0.100062 0.90216,0 1.20272,0 0.23564,0 0.57407,-0.05693 0.80181,0 0.57484,0.143711 0.74195,1.061079 1.06907,1.469983 0.27172,0.33965 0.68301,0.582028 0.93545,0.935443 0.11579,0.162105 0.16168,0.365608 0.26727,0.534539 0.11804,0.18887 0.26726,0.356359 0.4009,0.534539 0.17818,0.267269 0.36619,0.528241 0.53454,0.801809 0.42183,0.685481 0.75742,1.47021 1.20271,2.138156 0.0699,0.104831 0.21093,0.154579 0.26727,0.267269 0.0398,0.07968 -0.0282,0.182752 0,0.26727 0.0508,0.152367 0.20762,0.251782 0.26727,0.400904 0.12851,0.321281 0.22102,0.635629 0.40091,0.935444 0.38595,0.643263 0.92393,1.118632 1.33634,1.737251 0.11051,0.165754 0.12641,0.393676 0.26727,0.534539 0.0704,0.07043 0.20751,0.05395 0.26727,0.133635 0.11982,0.159755 0.19322,0.805847 0.26727,0.935444 0.0938,0.164087 0.29106,0.247118 0.40091,0.400904 0.11578,0.162104 0.16031,0.366472 0.26727,0.534539 0.29192,0.458733 0.69227,0.850012 0.93544,1.336347 0.25666,0.513315 0.42603,1.267524 0.80181,1.737253 0.11806,0.147574 0.29607,0.243656 0.4009,0.400904 0.22144,0.332163 0.38422,0.826907 0.53454,1.202713 0.28957,0.723932 -0.0628,-0.238257 0.4009,0.534539 0.14495,0.241578 0.14128,0.549824 0.26728,0.801808 0.0718,0.143653 0.19544,0.257251 0.26727,0.400905 0.35629,0.712596 0.49176,1.548358 0.8018,2.27179 0.0633,0.147623 0.19545,0.257252 0.26727,0.400905 0.35717,0.714331 0.53447,1.736799 0.66818,2.53906 0.1116,0.669631 0.0735,2.185014 -0.13364,2.80633 -0.18904,0.567124 -0.52329,1.157727 -0.66817,1.737251 -0.0324,0.129646 0.0262,0.269865 0,0.400905 0.0993,0.247322 -0.22832,0.245092 -0.26727,0.400905 -0.0324,0.129646 0.0367,0.272412 0,0.400904 -0.0547,0.191545 -0.19732,0.348012 -0.26727,0.534538 -0.17013,0.453678 -0.17691,0.884526 -0.26727,1.33635 -0.0555,0.277386 -0.31119,0.532648 -0.4009,0.801806 -0.10256,0.307652 -0.14683,0.634347 -0.26728,0.935445 -0.0596,0.149122 -0.21647,0.248536 -0.26726,0.400905 -0.0845,0.253552 0.0524,0.539728 0,0.801809 -0.0773,0.386747 -0.41705,0.7166 -0.53454,1.069078 -0.0423,0.126775 0.0189,0.26861 0,0.400902 -0.0519,0.363635 -0.16172,0.717243 -0.26727,1.069078 -0.16191,0.539692 -0.38629,1.060019 -0.53454,1.603618 -0.19112,0.700773 -0.30528,1.450361 -0.53454,2.138156 -0.15172,0.455145 -0.2877,0.924955 -0.53454,1.336347 -0.0648,0.108038 -0.21092,0.15458 -0.26727,0.267272 -0.0821,0.164272 -0.0613,0.365725 -0.13363,0.534537 -0.0633,0.147625 -0.20762,0.251783 -0.26727,0.400905 -0.0331,0.08272 0.0331,0.184552 0,0.267269 -0.0597,0.149122 -0.21648,0.248536 -0.26727,0.400905 -0.0564,0.169037 0.0563,0.365503 0,0.53454 -0.23801,0.714012 -0.13686,1.416852 0.13363,2.138156 0.07,0.186526 0.21254,0.342993 0.26727,0.534538 0.0976,0.341558 0.0552,2.899341 0,3.34087 -0.0927,0.741804 -0.17484,0.796792 -0.53454,1.336346 -0.0948,0.14214 -0.0459,0.423871 -0.26727,0.534541 -0.75348,0.37674 -1.06178,0.386323 -1.46998,1.202711 -0.0797,0.159369 0.0293,0.358786 0,0.53454 -0.0533,0.319879 -0.21396,0.615564 -0.26727,0.935443 -0.0506,0.303388 0.0506,0.632058 0,0.935448 -0.0981,0.58841 -0.1692,0.21339 -0.26727,0.8018 -0.0299,0.17971 0.0637,0.6107 0,0.80181 -0.0398,0.11953 -0.21092,0.15458 -0.26727,0.26727 -0.19691,0.39383 -0.43037,1.18696 -0.53454,1.60362 -0.13349,0.53395 -0.13466,0.002 -0.4009,0.53454 -0.0137,0.0273 -0.11152,0.85805 -0.13364,0.93544 -0.15307,0.53576 -0.29412,1.0697 -0.4009,1.60362 0.0307,0.26836 -0.20909,0.43545 -0.26727,0.66817 -0.0282,0.11285 0.0584,0.41772 0,0.53454 -0.12035,0.24071 -0.29335,0.64102 -0.53454,0.80181 -0.37063,0.24709 -1.90696,0.43343 -2.40542,0.26727 -0.29158,-0.0972 -0.55421,-0.2771 -0.80181,-0.4009 -0.31874,-0.15937 -0.71547,0.0442 -1.06908,0 -0.13978,-0.0175 -0.26146,-0.11372 -0.40091,-0.13364 -0.60208,-0.086 -1.44603,-0.0898 -2.00452,0.13364 -0.47058,0.18823 -1.10433,0.43616 -1.46998,0.8018 -0.0992,0.0992 -0.16072,1.25689 -0.26727,1.46999 -0.23551,0.47102 -0.80676,0.53949 -0.93544,0.66817 -0.0315,0.0315 0.0315,0.10214 0,0.13363 -0.15749,0.15749 -0.45688,-0.0704 -0.66818,0 -0.15236,0.0508 -0.25725,0.19545 -0.4009,0.26728 -0.12813,0.0641 -0.38639,0 -0.53454,0 -0.49378,0 -0.90845,0.009 -1.33635,-0.13364 -0.0598,-0.0199 -0.0739,-0.11371 -0.13363,-0.13364 -0.0845,-0.0282 -0.18275,0.0282 -0.26727,0 -0.24641,-0.0821 -0.42176,-0.31876 -0.66818,-0.4009 -0.0845,-0.0282 -0.18455,0.0331 -0.26727,0 -0.14912,-0.0597 -0.24853,-0.21648 -0.4009,-0.26727 -0.35325,-0.11775 -0.76139,-0.0466 -1.20271,-0.26727 -0.17666,-0.0883 -0.4801,0.0627 -0.66818,0 -0.28063,-0.0935 -0.52117,-0.30736 -0.8018,-0.4009 -0.5454,-0.1818 -1.19564,0.0469 -1.73726,-0.13364 -0.96797,-0.32266 0.21069,0.0385 -0.4009,-0.26727 -0.18579,-0.0929 -0.4376,-0.0184 -0.66817,-0.13363 -0.14366,-0.0718 -0.24509,-0.22832 -0.40091,-0.26727 -0.21607,-0.054 -0.45402,0.0612 -0.66817,0 -0.12115,-0.0346 -0.16244,-0.19738 -0.26727,-0.26727 -0.13223,-0.0881 -0.51181,-0.0554 -0.66818,-0.13363 -0.25122,-0.12562 -0.43673,-0.38025 -0.66817,-0.53454 -0.49917,-0.33278 -1.17113,-0.63659 -1.60362,-1.06908 -0.0704,-0.0704 -0.0784,-0.1844 -0.13363,-0.26727 -0.28852,-0.43278 0.0166,0.0556 -0.26727,-0.13364 -0.4117,-0.27447 -0.67229,-0.77148 -1.06908,-1.06908 -0.6651,-0.49882 -1.55561,-0.80483 -2.27179,-1.20271 -0.38939,-0.21633 -0.69844,-0.55472 -1.06908,-0.80181 -0.0863,-0.0575 -0.47666,-0.20939 -0.53454,-0.26727 -0.11419,-0.11419 -0.30917,-0.75198 -0.4009,-0.93544 -0.0891,-0.13364 -0.17818,-0.26727 -0.26727,-0.4009 -0.0891,-0.0446 -0.21202,-0.0508 -0.26727,-0.13364 -0.0799,-0.11984 0.0475,-0.39208 0,-0.53454 -0.13963,-0.41887 -0.30231,-0.80833 -0.40091,-1.20271 -0.0913,-0.36509 -0.4201,-0.59214 -0.53453,-0.93544 -0.0155,-0.0465 -0.12709,-0.52472 -0.13364,-0.534542 -0.10483,-0.157249 -0.31638,-0.23187 -0.4009,-0.400904 -0.0879,-0.175768 -0.0692,-0.341106 -0.13364,-0.53454 -0.23428,-0.702853 -0.24127,-0.348904 -0.53454,-0.935443 -0.14159,-0.283178 -0.26307,-0.659781 -0.4009,-0.935445 -0.19221,-0.384415 -0.62046,-1.154999 -0.93544,-1.469982 -0.0315,-0.0315 -0.10214,0.0315 -0.13364,0 -0.0315,-0.0315 0.0247,-0.09657 0,-0.133633 -0.10483,-0.157248 -0.29607,-0.243658 -0.4009,-0.400905 -0.0446,-0.08909 -0.0891,-0.178181 -0.13364,-0.267269 0,-0.04454 0.0199,-0.09379 0,-0.133636 -0.27808,-0.556156 0.009,0.142859 -0.26727,-0.133635 -0.063,-0.063 0.0399,-0.187585 0,-0.267269 -0.12744,-0.254879 -0.006,-0.146024 -0.13363,-0.400905 -0.0199,-0.03984 -0.10214,0.0315 -0.13364,0 -0.0668,-0.06682 0.0668,-0.334087 0,-0.400904 -0.0315,-0.0315 -0.11371,0.03984 -0.13363,0 -0.0398,-0.07968 0.0398,-0.187585 0,-0.267269 -0.0446,-0.08909 -0.22273,-0.04455 -0.26727,-0.133633 -0.0562,-0.112308 -0.056,-0.456875 -0.13364,-0.534541 -0.0704,-0.07043 -0.21201,-0.05076 -0.26727,-0.133635 -0.0494,-0.07413 0.0399,-0.187585 0,-0.267269 -0.0199,-0.03984 -0.10213,0.0315 -0.13363,0 -0.0379,-0.03789 -0.637,-1.006724 -0.66818,-1.069078 -0.0337,-0.06742 -0.10134,-1.235007 0,-1.336347 0.0315,-0.0315 0.0891,0 0.13364,0 0.0446,-0.04455 0.0987,-0.08122 0.13364,-0.133636 0.0814,-0.122073 0.11406,-0.324302 0.26726,-0.400905 0.0399,-0.01992 0.10214,0.0315 0.13364,0 0.19398,-0.193979 -0.0781,-0.840835 -0.26727,-0.935442 -0.14161,-0.07081 -0.38312,0.05047 -0.53454,0 -0.0945,-0.0315 -0.17277,-0.102137 -0.26727,-0.133636 -0.6783,-0.226099 -1.5657,0.141219 -2.27179,0 -0.13813,-0.02763 -0.26278,-0.106008 -0.4009,-0.133633 -0.25375,-0.05075 -0.55095,0.06271 -0.80181,0 -0.0966,-0.02416 -0.17818,-0.08909 -0.26727,-0.133636 -0.17818,-0.04454 -0.35338,-0.103441 -0.53454,-0.133635 -0.16495,-0.02749 -0.5134,0.06191 -0.66818,0 -0.14912,-0.05965 -0.24853,-0.21648 -0.4009,-0.267269 -0.12678,-0.04226 -0.26986,0.02622 -0.4009,0 -0.19535,-0.03907 -0.3392,-0.228201 -0.53454,-0.267269 -0.13104,-0.02622 -0.26909,0.02196 -0.40091,0 -1.33136,-0.221893 0.72174,-0.06012 -0.93544,-0.267269 -0.35961,-0.04495 -0.73018,-0.02066 -1.06908,-0.133636 -0.0598,-0.01992 -0.0739,-0.113712 -0.13363,-0.133635 -0.56343,-0.18781 -1.48074,0.04096 -2.00452,-0.133633 -0.43954,-0.146513 -0.73446,-0.06674 -1.20272,-0.133636 -0.13945,-0.01992 -0.26195,-0.110477 -0.4009,-0.133633 -0.28586,-0.04764 -0.65163,0.07095 -0.93544,0 -0.48659,-0.121648 -0.93813,-0.20079 -1.46999,-0.267272 -0.3209,-0.04011 -0.76028,0.102934 -1.06908,0 -0.0598,-0.01992 -0.0773,-0.10546 -0.13363,-0.133633 -0.21309,-0.106545 -0.71779,0.03109 -0.93544,0 -0.42101,-0.06014 -0.809459,-0.168955 -1.202717,-0.267271 -0.268692,-0.06717 -0.869953,0.02845 -1.069078,0 -0.255064,-0.03644 -0.553643,-0.184547 -0.801809,-0.267269 -0.312423,-0.10414 -2.623479,-0.05626 -3.073599,0 -0.48877,0.0611 -0.668173,0.01579 -0.668173,0.400904 0,0.08909 -0.04942,0.193144 0,0.267269 0.08263,0.12395 0.544981,0.185142 0.668173,0.267272 0.256384,0.170921 0.502992,0.434932 0.801809,0.534537 0.08452,0.02817 0.179909,-0.01746 0.267269,0 0.268357,-0.03066 0.435454,0.20909 0.668174,0.267269 0.543396,0.135851 1.188143,-0.10982 1.737251,0 0.755346,0.151069 1.490771,0.133636 2.27179,0.133636 0.9494,0 1.98814,-0.141825 2.80633,0.267269 0.24434,0.122169 0.67571,-0.08658 0.93545,0 0.0731,0.02439 0.49707,0.229812 0.53453,0.267269 0.0821,0.0821 0.0883,0.311412 0.26727,0.400904 0.14255,0.07127 0.17863,-0.132291 0.26727,0.133636 0.0282,0.08452 -0.0398,0.187584 0,0.267269 0.0199,0.03984 0.10214,-0.0315 0.13364,0 0.0511,0.05112 0,0.621305 0,0.668173 0,0.178181 0.15937,0.454856 0,0.534541 -0.12819,0.06409 -0.38565,-0.02978 -0.53454,0 -1.33877,0.267753 -2.77762,0.133633 -4.14268,0.133633 -0.4029,0 -0.944162,-0.09804 -1.336346,0 -0.193262,0.04832 -0.345551,0.204274 -0.53454,0.267271 -0.08452,0.02817 -0.182751,-0.02817 -0.267269,0 -0.27186,0.09062 -0.574101,0.287049 -0.801809,0.400905 -0.157869,0.07894 -0.253482,0.302622 -0.400902,0.400902 -0.171813,0.114541 -0.694119,0.293214 -0.80181,0.400904 -0.07043,0.07043 -0.0632,0.19684 -0.133635,0.267272 -0.193829,0.193826 -0.44922,0.103055 -0.668174,0.267269 -0.100793,0.07559 -0.154577,0.210923 -0.267269,0.267269 -0.366313,0.183155 -1.688017,0.133635 -2.138156,0.133635 -1.291804,0 -2.583606,0 -3.875407,0 -0.513437,0 -1.096436,-0.08453 -1.603619,0 -1.653749,0.275625 -3.272692,0 -4.944485,0 -1.826342,0 -3.652684,0 -5.479026,0 -0.55018,0 -1.98491,0.140171 -2.405425,0 -0.05976,-0.01992 -0.0715,-0.12328 -0.133636,-0.133635 -0.602721,-0.100455 -1.260234,-0.03186 -1.870887,-0.133636 -0.598268,-0.09971 -1.137849,-0.434636 -1.737252,-0.534538 -0.175755,-0.02929 -0.365503,0.05635 -0.534537,0 -0.18899,-0.063 -0.345552,-0.204274 -0.534541,-0.267269 -0.126778,-0.04226 -0.269864,0.02622 -0.400904,0 -0.276255,-0.05525 -0.525553,-0.212018 -0.801807,-0.267271 -0.367639,-0.07352 -1.483447,-0.04903 -1.737254,-0.133633 -0.19926,-0.06642 -0.43044,-0.219723 -0.668174,-0.267269 -0.380918,-0.07618 -0.826042,0.09416 -1.202712,0 -0.193263,-0.04832 -0.339196,-0.228203 -0.534539,-0.267272 -0.329266,-0.06585 -0.90218,0.150268 -1.202713,0 -0.372548,-0.186274 -0.436989,-0.04243 -0.801808,-0.133633 -0.241871,0.08055 -0.248537,-0.216482 -0.400905,-0.267271 -0.399556,-0.133184 -0.915691,-0.07354 -1.336347,-0.133633 -0.452264,-0.06461 -0.766087,-0.328134 -1.202713,-0.400905 -0.131816,-0.02196 -0.269088,0.02196 -0.400904,0 -0.277894,-0.04632 -0.523915,-0.220953 -0.801809,-0.267269 -0.131816,-0.02196 -0.272411,0.03671 -0.400904,0 -0.191546,-0.05473 -0.342993,-0.212542 -0.534539,-0.267271 -0.438368,-0.125246 -1.041713,0.0091 -1.469983,-0.133633 -0.05976,-0.01992 -0.08909,-0.08909 -0.133634,-0.133636 -0.17818,-0.04454 -0.353375,-0.103442 -0.534539,-0.133633 -0.175756,-0.02929 -0.365504,0.05634 -0.534539,0 -0.05976,-0.01992 -0.07387,-0.113715 -0.133635,-0.133636 -0.342916,-0.114305 -0.851651,0.05851 -1.202713,0 -0.409929,-0.06832 -0.94463,-0.120375 -1.336348,-0.267269 -0.607485,-0.227809 -1.22326,-0.538649 -1.870886,-0.668173 -0.17472,-0.03495 -0.36168,0.04321 -0.534539,0 -0.241872,0.08054 -0.248538,-0.216482 -0.400905,-0.267272 -0.08452,-0.02817 -0.182751,0.02817 -0.267269,0 -0.05976,-0.01992 -0.07729,-0.10546 -0.133635,-0.133633 -0.251984,-0.125992 -0.542861,-0.156292 -0.801809,-0.267271 -0.702557,-0.301096 -1.414248,-0.69414 -2.138156,-0.935443 -0.18046,-0.06015 -0.505571,-0.05233 -0.668174,-0.133635 -0.11269,-0.05635 -0.162438,-0.197382 -0.267269,-0.267269 -0.551163,-0.367443 -1.685108,-0.96479 -2.004522,-1.603616 -0.102241,-0.204483 -0.225911,-0.493181 -0.400904,-0.668176 -0.185013,-0.185013 -0.438653,-0.419777 -0.668174,-0.534538 -0.329136,-0.164568 0.120637,0.387906 -0.400904,-0.133636 -0.0315,-0.0315 0.0315,-0.102137 0,-0.133633 -0.07043,-0.07043 -0.196838,-0.0632 -0.26727,-0.133635 -0.276495,-0.276495 0.422521,0.01082 -0.133634,-0.267269 -0.03984,-0.01992 -0.102137,0.0315 -0.133635,0 -0.276495,-0.276495 0.422521,0.01082 -0.133635,-0.267269 -0.08204,-0.04102 -0.320753,-0.147045 -0.400904,-0.267272 -0.04942,-0.07412 0.03984,-0.187584 0,-0.267268 -0.01992,-0.03984 -0.09379,0.01992 -0.133635,0 -0.112691,-0.05635 -0.17818,-0.178179 -0.267269,-0.267269 -0.22498,-0.224981 -0.252383,-0.371131 -0.400905,-0.668174 -0.05635,-0.112691 -0.210924,-0.15458 -0.267269,-0.267271 -0.03984,-0.07968 0.03128,-0.183851 0,-0.267269 -0.119117,-0.317643 -0.26727,-0.623628 -0.400904,-0.935442 z" />
    <path
       style="fill:none;fill-opacity:1;stroke:#000000;stroke-width:0.264999"
       d="m 139.46104,64.027891 c 2.2206,-0.01808 4.46008,-0.06594 6.65498,0.302929 0.91673,0.154066 1.81268,0.40491 2.7253,0.582059 3.26114,0.63302 6.52729,1.330916 9.84607,1.541246 0.79676,0.05049 1.60646,0.101808 2.39475,-0.03678 0.41249,-0.07252 0.80594,-0.252559 1.23044,-0.251302"
       id="path4"
       inkscape:path-effect="#path-effect4"
       inkscape:original-d="m 139.46104,64.027891 c 2.14611,-0.01829 4.27583,-0.01788 6.41447,0.267269 0.85731,0.11431 1.69016,0.368901 2.53906,0.534539 3.30861,0.645583 6.66363,1.288714 10.0226,1.603617 0.72936,0.06838 1.78541,0.09421 2.53906,0 0.45496,-0.05687 0.868,-0.267269 1.33635,-0.267269" />
    <path
       style="fill:none;fill-opacity:1;stroke:#000000;stroke-width:0.264999"
       d="m 126.76573,76.856829 c 2.81421,-1.091776 5.89615,-1.34122 8.88427,-1.040792 2.66294,0.267733 5.24867,1.006093 7.78853,1.830581 1.04204,0.338265 2.183,0.511297 3.08311,1.150843 1.09459,0.777725 2.14881,1.610693 3.20492,2.439458 0.75124,0.589526 1.48367,1.202054 2.17892,1.85892 0.71737,0.67777 1.35963,1.481704 2.26597,1.91781 0.65988,0.317519 1.40376,0.395302 2.12757,0.395805"
       id="path5"
       inkscape:path-effect="#path-effect5"
       inkscape:original-d="m 126.76573,76.856829 c 5.3063,-2.04189 11.05604,-1.120714 16.30345,0.668174 1.12027,0.381912 2.29652,0.645728 3.34086,1.202711 0.39851,0.212537 4.07653,3.080255 4.67722,3.608138 2.17216,1.908866 2.49008,3.073602 5.21176,3.073602" />
    <path
       style="fill:none;fill-opacity:1;stroke:#000000;stroke-width:0.264999"
       d="m 126.2312,88.215783 c 1.14777,0.02905 2.31873,-0.09996 3.44327,0.213797 0.70808,0.197562 1.26262,0.70804 1.93235,0.993591 0.55683,0.237409 1.13133,0.45381 1.61703,0.827248 0.40884,0.314341 0.8194,0.634674 1.29681,0.842232 0.52568,0.22854 1.05608,0.445707 1.55749,0.728307 0.65585,0.369647 1.25768,0.862966 1.97564,1.096462 0.36431,0.118479 0.75899,-0.01518 1.11994,0.166173 1.64228,0.825109 3.27944,1.742864 5.09864,2.109032 0.95066,0.191347 1.91765,0.01319 2.87307,-0.04541 0.57068,-0.03501 1.15433,-0.09879 1.71253,0.02027 0.3529,0.07527 0.64031,0.324049 0.89158,0.567395 0.25532,0.247266 0.5855,0.471777 0.69313,0.813218 0.0547,0.173627 0.0662,0.375443 0.21486,0.500067 0.16996,0.142451 0.3346,0.271276 0.29609,0.52206"
       id="path6"
       inkscape:path-effect="#path-effect6"
       inkscape:original-d="m 126.2312,88.215783 c 1.20234,0.03101 2.43878,-0.139464 3.60814,0.267269 0.52716,0.183364 0.97076,0.552199 1.46998,0.801809 0.48141,0.240707 1.00266,0.401132 1.46998,0.668174 0.4721,0.269771 0.86425,0.665673 1.33635,0.935442 0.46732,0.267041 0.98857,0.427469 1.46998,0.668176 0.8204,0.410199 1.5704,0.956791 2.40543,1.336347 0.32645,0.148391 0.78966,-0.0061 1.06907,0.133636 1.61461,0.807304 3.27412,1.737264 5.07812,2.138156 0.9568,0.212622 1.84636,0.106661 2.80633,0 0.60795,-0.06755 1.25706,0 1.87089,0 0.4386,0 1.36075,0.931558 1.60362,1.336347 0.0725,0.120787 0.0612,0.280114 0.13363,0.400904 0.23529,0.392152 0.40091,0.20551 0.40091,0.668174" />
    <path
       style="fill:none;fill-opacity:1;stroke:#000000;stroke-width:0.264999"
       d="m 66.229188,80.598601 c 0.49561,0.07331 1.006588,-0.03156 1.441259,-0.253306 0.400166,-0.204142 0.800654,-0.408169 1.231437,-0.548503 2.1911,-0.713783 4.435124,-1.334957 6.744868,-1.501343 2.400839,-0.172948 4.809668,-0.102047 7.214296,-0.101719 3.228584,4.4e-4 6.459233,0.183274 9.657054,0.680925 1.093902,0.170236 2.166294,0.444589 3.231727,0.744529 1.995635,0.56181 4.043649,0.89775 6.070071,1.3253 2.89457,0.610721 5.77924,1.264388 8.67328,1.880577 1.18076,0.251405 2.36109,0.577638 3.57725,0.57987"
       id="path7"
       inkscape:path-effect="#path-effect7"
       inkscape:original-d="m 66.229188,80.598601 c 0.178181,0 0.360923,0.04007 0.53454,0 1.531321,-0.35338 0.808852,-0.358706 2.138156,-0.801809 1.53896,-0.512985 3.633123,-1.11083 5.211755,-1.336347 2.23906,-0.319866 4.563006,-0.267269 6.815372,-0.267269 3.593553,0 7.129328,-0.03206 10.690781,0.534538 3.58726,0.570701 2.714035,0.586531 5.87993,1.336349 1.996234,0.472792 3.195068,0.626391 5.211758,1.069078 2.45473,0.538843 4.88183,1.125924 7.34991,1.603616 1.3116,0.25386 2.66451,0.668174 4.00904,0.668174" />
    <path
       style="fill:none;fill-opacity:1;stroke:#000000;stroke-width:0.264999"
       d="m 69.436422,73.382323 c 0.412688,0.02213 0.841116,0.05144 1.227411,-0.137613 0.412723,-0.201986 0.832333,-0.379901 1.283853,-0.492106 4.305012,-1.069809 8.76662,-1.243457 13.18188,-1.238021 1.750418,0.0022 3.500435,-0.03868 5.250864,-0.04152 1.056023,-0.0017 2.120564,-0.06117 3.168226,0.0804 1.465057,0.197979 2.884411,0.64139 4.354236,0.815631 1.125397,0.13341 2.204468,0.488267 3.272138,0.857794 0.97806,0.33851 1.96425,0.685318 3.00739,0.783966 0.57211,0.0541 1.09374,0.316724 1.66737,0.37977 0.37133,0.04081 0.56603,0.381699 0.89011,0.535595 0.97432,0.462675 2.01966,0.758262 2.9339,1.368238 0.89568,0.597597 1.99466,0.832214 3.06028,0.829636"
       id="path8"
       inkscape:path-effect="#path-effect8"
       inkscape:original-d="m 69.436422,73.382323 c 0.267269,0 0.53885,0.04781 0.801809,0 0.472025,-0.08582 0.872119,-0.413435 1.336347,-0.534537 0.794768,-0.207333 1.597308,-0.38761 2.405425,-0.534541 4.402098,-0.80038 8.782039,-0.801809 13.229844,-0.801809 1.959975,0 3.922278,-0.09549 5.879928,0 1.007877,0.04917 2.644528,0.487498 3.608138,0.668176 0.798947,0.149802 1.612522,0.221861 2.405425,0.400905 1.457112,0.329023 2.818142,1.012309 4.276312,1.336347 0.35058,0.07791 0.71692,0.0632 1.06908,0.133633 0.31799,0.0636 0.62083,0.188619 0.93544,0.267271 0.22036,0.05509 0.46062,0.04139 0.66818,0.133634 0.20352,0.09046 0.33532,0.301299 0.53453,0.400904 0.8093,0.404646 1.73246,0.634751 2.53907,1.069078 0.28282,0.152289 0.51981,0.380725 0.8018,0.534541 0.88805,0.484385 1.82008,0.668173 2.80633,0.668173" />
  </g>
</svg>
